<svg id="Layer_1" data-name="Layer 1" xmlns="http://www.w3.org/2000/svg" viewBox="0 0 1644.16 495.05"><defs><style>.cls-1{fill:#d8d8d8;}</style></defs><title>brush</title><path class="cls-1" d="M793.29,357.82c-.2,2.11-1.15,3.47-3.92,3.26q-13.12-1-26.27-1.92c-.67,0-1.34-.09-2-.1-24-.4-48-.82-72-1.15-2.33,0-5,.77-7.39.8-.94,0-1.45-1-1.25-2.6-9.25,0-18.46-.16-27.79,0-2.76,0-5.12-2-8.77,1.25a1.48,1.48,0,0,1-1,.26c-12.44-3.16-27.84-1.08-39.94-5-3.06-1-7.9.5-11.4,0-6-.9-12.73,0-19.09,0-6.15,0-12.91.5-17.87-1.18-9.48-3.22-21.39.21-31.95.1-27.32-.29-54.49-.92-81.86-1.08-6.93,0-14.37,1-21.63,1.81-3.35.36-7,1.59-10.2,1.66-1.28,0-6.73,2.63-3.42-2.28a17.18,17.18,0,0,0-2.75.41c-1.84.56-3.91,1.8-5.47,1.81-3.91,0-8.08-2.05-11.27-.46-7,3.47-11.94,2-17.7,2.64-2.89.3-5.51-.27-8.38-.08-9.8.65-19.93-.94-29.41,2.79-12.58,4.95-22.22,3.48-33,4.57-18.61,1.88-37,3-55.57,4.84-10.7,1.08-21.59,2.14-32.56,5a64.84,64.84,0,0,1-15.27,2.4c-1.27-1.85-1.57-3.3-2.7-3.76-4.63-1.9-9.54-3.42-16.5-.47a5.1,5.1,0,0,1-2.62.32c-3.42-.57-6.77-1.25-10.14-1.89l-1.7,2.49,20.6,6-.81,1.26c6.69,0,13.16,0,19.63.06,3.89,0,7.56-1.25,11.88-3.17A58.3,58.3,0,0,1,229,372c10.31-1.11,20.49-1.66,30.51-1.92,18.65-.48,37.09-.44,55.73-.9,15.26-.37,30.67-1.12,46.06-1.79a12,12,0,0,0,5.44-2l-25.08-.08c2.23-1.5,3.29-2.58,4-2.66,4.62-.47,9.23-.89,13.72-1,14.62-.36,29.26-.76,43.74-.78,6.12,0,11.83.92,17.78,1.33a40.16,40.16,0,0,0,4.79-.25l-.46,1.48-3.19.6-.21.68c4.6,0,10.19-1.14,13.58.29,6.6,2.79,15,1.36,22.64,1.63,6.22.22,13-.81,19.33-.74,23,.25,45.9.78,68.88,1.1q16,.23,32.27.06c2.83,0,6-.77,10.46-1.4-11.71-1.49-24.39,1.41-34.38-3.5,2.68-.48,3.9-.92,4.84-.84,12,.95,24.45,1.21,35.82,3.19,10.8,1.88,22.91,1.12,33.5,3.37,4.3.91,10.19-.67,15-.46,7.68.34,15.05,1.32,22.65,1.84,3.7.25,7.74-.15,11.4.17,2.28.2,4.14,1.2,6.19,1.85l-1.15,1.94c-3.13,0-6.4.23-9.37-.08C665.65,372.36,658,371,650,370.4c-3.73-.3-8.11.69-12.06.77-7.57.15-14.9-.15-20.69-3.05a2.84,2.84,0,0,0-2.25.14c-4.94,3.76-9.12,2.87-13.31,2.8q-25.67-.43-51.23-1.1c-11.92-.3-23.6-1.16-35.73-.92-9.84.19-20.21,1.64-30.57,3.28l50.24,2.74-4.27,2.17c3,.59,7-.09,3.59,3.48,11.17,1.25,22.21,2.49,33.21,3.79.06,0-.38.9-1,2.26l-38.24-.12-.5,1.23,48.35,5.5-.69,1.31c-13.77,0-26.26-2.9-40.54-1.32-1.73-.74-3.2-2-5.25-2.13-13-.54-26-1.1-39.28-1.11-17.92,0-36,.42-54.11.75-10.57.19-21.18.45-31.85.88-9.19.37-18.49,1-28,1.57l.55,3.55c-1.78-.89-2.66-1.42-3.67-1.8-1.36-.51-3-1.76-4.19-1.22-9.89,4.56-17.83,2.43-26.64,3.41-7.1.79-14,1-21.05,1.58a20.09,20.09,0,0,0-3.51,1.3c8,0,15.17-.08,22.18.1,8.49.21,16.83.76,25.35.92,1.62,0,3.77-1.08,4.9-1.43,2.15.87,3.88,2.37,6.26,2.37a120.47,120.47,0,0,0,14.78-1.33c4.09-.52,8-1,10.85,2.52-2.84,0-4.29-.06-5.79,0-17.77.58-35.4.76-53.36,1.89-14.64.92-29.67,2.93-44.56,4.55-4.2.46-8.51,1.25-12.75,1.81a11.24,11.24,0,0,1-3.62,0c-7.31-1.56-13-1.49-21.5.46l7.8,1.51L267,415l-49.52,2.12-.52,1a41.28,41.28,0,0,0,6.53,1q29,.21,58.07.15c1.75,0,4.09-1.43,5.92-1.55a37.83,37.83,0,0,1,7.5.45c1.85.24,3.35,1.16,5.27,1.18q27.67.22,55.46.18c2.88,0,6.21-1,9-.81,6.13.41,12,1.23,18,2,.48.06.6,1,.54,1.59a3.28,3.28,0,0,1-1.65,1,100.78,100.78,0,0,1-10.64,1.05c-10.25.11-20.36-.13-30.62,0-17.14.18-34.13-.11-51.6,1-16.88,1-34.37,3.79-51.43,5.27-7.62.66-14.83.07-23.09,0l1.43,3.82c-3.12.74-6,1.88-8.43,1.91-10.8.17-21.37-.2-32.21.07-6.44.16-13.21,1.16-19.83,1.79l-.45,1.29,48.67-2c1.58-.07,3.14-.06,4.7-.06l42.91.13c.73-5.36,3.91-6.6,7.75-6.71,20.37-.61,40.75-1.25,61.05-1.68a13.34,13.34,0,0,1,8,2.5l-6.28.62c10.31,0,20,.08,29.79.08,1.54,0,3.19-.26,4.73-.26,17.12,0,34.19.16,51.35.1,4.79,0,9.87-.73,14.66-.75,1.11,0,1.56,1.54,2.31,2.37l-1.92,2.32c-13.38,0-26.67-.32-40.17-.07-20.63.37-41.32.91-62.14,1.75-13.55.55-27.33,1.67-41.08,2.75a117.71,117.71,0,0,0-19.18,3.12l12.61,2.4-1.08,1.71-23.22,1.56-.72,3.18c-.69.13-1.68.56-2,.34-4.59-2.83-11.27-1.85-17.36-2-.86,0-2.07-.41-2.08-1-.11-7-6.71-6.35-13.31-5.78-4.77.41-9.56.84-14.18.89-11.12.1-22-.41-33.25.07-7.9.34-16.29.64-24.42,3.36-6.22,2.08-10.62,2.22-15.38,1.36a49.91,49.91,0,0,0-11.25-1.05c-5.82.27-11.9,1.24-17.92,1.92,1.15-5.14,2.15-6,12.49-10.68l-10.92,1.11c-1,4.67-4,7.54-8.6,7.35-5-.21-9.64-1.27-15-2,8.12-4.82,15.17-10.23,22.14-6.83,2.61-6-2.17-4.33-4.74-4.43-6-.23-12.2,0-18.11-.29-3.75-.21-7.13-1.16-11.15-1.86l.11,2.58-1,.72-1.93-2.65.94-1.66c-5.48,1.19-11.33,3.28-16.33,3.34-5.42.06-10.15-1.64-15-2.83-2.5-.62-4.38-2.17-6.95-2.65-4.52-.85-5.45-3.1-1.87-7.66,24.79,5.24,53.85.68,81.4-.27l1.38-1.5c-.94-.89-1.56-2.55-2.88-2.55-8.69,0-14.89-3.12-20.64-6.77-2.45-1.55-4.82-1.17-7.54,1.33-4.35,4-5.18,2-6.18-.79,1.46-.45,3.12-.56,3.71-1.21,5.18-5.7,9.92-4.27,14.73-4.3,5.21,0,10.4,0,15.54.08a5.49,5.49,0,0,1,4.31,1.81c-3.18,0-6.32-.16-9.57,0a34.34,34.34,0,0,0-10,1.95c15.18,4.18,32.43,4.21,50.42,3.21-6.6-1.45-15.23-.71-16.63-8.44l21,2c-.5-8-6.58-9.89-14.32-10.2-7.41-.3-14.87-.51-22.16-1.06-11-.83-21.81-2.16-33-2.75-3-.16-6.86,1.62-11.22,2.73l-3-9.26c8.87,1.35,16.75,2.59,24.68,3.74,6.48.94,12.9,2,19.57,2.62,6.9.62,14.23.45,21,1.23,3,.35,5.35,1.71,9.62-1.89l-6.68-.37c3.85-2.87,6.83-5.12,9.89-7.29.2-.14,1.43.41,1.33.67a23.41,23.41,0,0,1-2,3.25l12.13-1.38c1.91-4.72,5.29-5.73,9.74-5.65,5.57.1,11.42-.42,17.56-.69-12.81-8.64-30.92-4.4-49.76-.64l7.61.7-.8,1.52-13.19-1,.77-2.16c8.58-5.85,15.07,0,23.65-4.49,2-4.12,4.4-5.42,12.8-6.72,4.31-.67,8.7-1.71,13.06-2.58l.32-1.47c-9.8.76-19.64,1.6-29.38,2.19-2,.12-3.55-.77-5.39-1.07-4.19-.7-8.32-1.51-12.67-1.93-5.18-.5-10.56-.62-15.93-2.05l8.77-5.44c-.26-2.19-.52-4.4-.82-7-5.29.26-11.54,1.38-16.62.58s-8.69-3.51-13-5.38l.9-1.4,3.27-1.15-.8-2.49c4.26,0,8.52.46,13.06,0,9.49-1.06,19.13-2.63,30-4.17L120.9,332l4.34-5-10.22.86-.35.82,4.37,1.78c-4.16,3-10.54,2.36-10.49-1.06,0-2.09,6.05-6,9.86-6.12s7.22.14,10.93-.07A49.58,49.58,0,0,0,136,322l.41-1.3-12.89,0,4.08-7.69c-5.35-.37-10.44,2.06-15.59,6.07l1.86,2.28-7.46,2.9,5.84-10.41c-7.71-.43-17.13,2.5-21.27-3.16,5.93-2.3,11.63-5,17.23-6.52s11.41-1.94,17.08-2.84c1.23-7.14-5.09-9.69-15.06-5.38l2,1.07c-3.78,2.18-7.23,4.32-10.8,6.12a4.16,4.16,0,0,1-3.53,0c-.61-.49-.57-2,0-3,3-5.28,6.55-10.51,9.31-15.81,1.67-3.2,3.4-4.83,7.25-5.65,6.41-1.37,12.91-3.25,19.94-5.07l-14.44-1.25.86-1.86,17.74,1.1c-1.75-3.37-10.06-.13-7-6.9l11.07,0,.5-1.6a40.16,40.16,0,0,1,6-.95c7.76,0,15.43.27,23.18.32.88,0,2.1-.74,3.71-1.35-10.09-1.55-22.73,1.88-31.08-4.43l7.39-1.63c-3.31-1.28-5.63-2.22-8-3.08-3.36-1.21-4.07-3.1.2-6.69,1.46-1.22,2.54-2.78,5.09-5.62-10.53-.11-19.79-.55-29.38-.08-2.55.12-6.14,3.05-10.16,5.17-5.37-1-7.22-5.7-8-11.13-.62-4.31,2.3-7.25,7.81-7.75,2.3-.21,4.47,0,7,0l-1.59,5.87,40.32-12.39-13.38-2.7,11.22-10.38c.85,1,2.09,1.72,2.22,2.84,1,8.53,10.47,10.18,21.07,3.4,1.22-.78,1.69-2.84,2.91-3.63s3.14-.92,6.44-1.77c-9-1-18.94,1.6-24.15-5.26,8.19.49,15.43.28,21.71,1.54,3.64.73,4.92-.08,6.71-3.82,1.71.86,2.89,1.85,4.5,2.12,1,.16,2.61-.79,4-1.24-.07-1,.39-2.72-.31-3a18.27,18.27,0,0,0-6.41-1.21c-10.32-.15-20.76,0-31-.22-2.66-.05-6.34,1.21-6.83-2.45-.15-1.11-5-.34-7.75-.38s-5.66,0-8.49,0l.55-1.66c7.54-1.36,15.06-2.66,22.62-4.12a31.72,31.72,0,0,0,4.63-1.48c3.59-.2,6.89.53,8.47-.67a17.8,17.8,0,0,0,5.5-7.75c.73-2.15-.57-4.13-1-6.2l-14.21,1.87.4-1.66a89.39,89.39,0,0,0,9.24-2c8.56-2.73,17.13-5.77,25.69-8.61,8.19-2.72,16.1-4.44,22.69-2.16.73.25,1,1.05,2.36,2.53-11.18.28-20.91,1.74-31,5.61l-.34,1.45c8.7-1,17.35-1.85,26.1-3,4.18-.57,6.54-3.78,9-6.85a50.15,50.15,0,0,1,5.13-4.89c-4.42-5.08-9.42-5-14.53.71-4.07-6.76-13.58-1.44-21.23-.56-3.25.38-6.84.77-9.33-.07-8.52-2.84-18.36-1.52-29,1.37-6.45,1.76-12.86,3-19.29,4.49l0-1.76c3.7-1.32,7.42-2.89,11.09-3.9,5.63-1.54,11.22-2.6,16.84-4.1,1.1-.29,2.28-1.66,3.48-2.58-10.8-2.65-22.27,7.81-32.79,8.36l-.31-1.59c3.44-1.69,6.89-3.84,10.33-5a44,44,0,0,1,11.26-2.06c4.92-.24,7.56-4.38,11.34-6.5,4.49-2.52,9-5,14.7-8.08l-7.24-2.73,6-2.69-2.41-5.77,5.45.67-.78-4.48,6.09-1.93.33-1.2-11.21.75-.28-1.17,17.05-8.68.14-1.14-6.53-.59-.43-1.13,9.44-5.2-3.39-1,13-3.34L205.59,90l1.13-1.74c4.51,0,8.9.38,13.56-.09,2.78-.28,6.68-1.22,8.84-3,4.31-3.58,7.08-2.92,9.38-1.46,2,1.27,4.05.86,6.83.16,9.4-2.39,18.77-4.46,28.21-6.66-2.22-.26-4.77-.19-6.7-.89-1.63-.59-2.54-2.07-3.77-3.16l1.71-1.86c3.47.89,6.74,2.11,10.45,2.59a118.62,118.62,0,0,0,15.94,1c1.48,0,3.72-2,5.65-2.81s4.25-1.91,5.51-1.6c3.81,1,7.14,2.6,10.76,3.84a14.52,14.52,0,0,0,4.56.81c11.71.1,23.46.11,35.08,1-1.11.37-2.39,1.09-3.29,1-9.26-.51-19.34,1.35-28.41-.31-10.61-1.94-23.35-.52-35.16-.56l-.59,1.23c3.6.48,7,1.31,10.84,1.4,22.89.51,45.69,1.27,68.88,1.09,15.43-.12,31.48-1.69,47.25-2.6,15.94-.92,31.91-1.91,47.82-2.72,13.84-.71,27.72-1.5,41.37-1.76,24.7-.46,49.27-.6,73.85-.78,35.35-.26,70.83-.83,105.91-.5,20,.19,39.27,1.88,58.84,3,6,.33,11.87.83,17.8,1.26l.88-1.69a13.66,13.66,0,0,0-2.42-.49c-10.84-.39-21.85-.43-32.51-1.16-14.87-1-29.26-3-44.28-3.75-10.74-.52-22.29.64-33.27.59-14.64-.07-29.06-.65-43.63-.87-3,0-6.38.7-9.46.77-15.14.34-30.21.54-45.34.87-9.89.22-20,.84-29.72.75-5.73-.05-10.74-1.75-16.51-1.65-7.33.13-15.18,1.52-22.67,2-5.21.33-10.19,0-15.28,0l.61-1.34c5.74-.32,11.5-.7,17.21-.94,14.85-.63,29.82-1.55,44.47-1.72,21.08-.25,41.9.12,62.9.07,6.52,0,13.4-.87,19.88-.81q45.13.44,90.11,1.21c15.05.24,30.16.4,44.93,1.23,6.15.35,11.46,2.37,17.19,3.58,1,.2,2.27-.08,3.08.26,1.32.56,5.88-1.91,3.5,2.3a4.47,4.47,0,0,0,1.89.51,55.3,55.3,0,0,1,5.66.09c3,.47,8.21-1.85,8.13,2.77,0,.43,2.18.18,3.35.25l.94,1.69a16.37,16.37,0,0,1-3.32.55c-7.36-.44-14.48-1.44-22.05-1.35-6.13.07-12.76.41-20.78,6.26C745,87,747.68,88.43,751,88.87A149.05,149.05,0,0,0,767.9,90c11.16.19,22.54-.1,33.65.2,20.05.54,40,1.35,59.94,2.08,8.45.31,16.9.63,25.3,1,12.91.63,25.65,1.65,38.72,1.93,9.69.21,19.78-.45,29.72-.78,7.48-.25,15.13-.87,22.48-.81,10.11.08,19.93.8,30,.95,14.1.2,28.37,0,42.48.19q40.44.49,80.77,1.2c23,.37,45.89.79,68.85,1.17q38.82.63,77.65,1.22c20.55.35,41.12.63,61.57,1.18,19.54.53,38.94,1.36,58.38,2.09,7.77.29,15.49.67,23.23,1,14.79.68,29.66,1.22,44.34,2.13,12.11.75,23.92,2.11,36,2.85,4.11.25,8.79-.68,13.11-.81,1.06,0,1.71,1,2,2.16,23.85,1.32,50.62-3,73.66,2.87-2.37.89-3.54,1.43-4.69,1.72a23,23,0,0,1-3.2.38l-.49,11.28c13.41.1,30.1-6.35,40.72.83l-11.34,0,2.11,4.72-8.11-.55-1.41,1.31c.77.86,1.48,2.65,2.31,2.42,3.93-1.1,5.11.29,6.46,2.46,1.22,2,4,2.94,5.12,5.34-6.64-.3-13.2-.81-20-.79-2,0-5.77,1-6.91,2.35-5.08,5.93-9.41,4.41-13.65,3.9-4.61-.55-8.83-1.78-13.3-2.6-4.28-.78-7.93.67-10.59,5.37a6.22,6.22,0,0,1-1.65,1.64c-16.82.82-33,1.6-49.24,2.4-5.77.29-11.57.67-17.32.91-3.21.14-6.29-.81-9.59,3.07a4.14,4.14,0,0,1-3,.54c-8.93-3.47-20.18-2.55-30.83-2.8-5.08-.12-10.06-.47-14.92-1-5.21-.58-12.15,2.37-16.11-.83-.24-.19-1.93,1.1-2.78,1.19a32.61,32.61,0,0,1-5-.25c-3,3.22-3.22-.61-5.24-.49a26.31,26.31,0,0,1-4.1.6,51.32,51.32,0,0,1-5.58-.7l2-3.29h-2.68l-2.85,5.55-5.92-7.11-1,.69-.06,3.78c-5.22.93-5.41.67-2.81-3.81-7.5-.44-15-1-22.52-1.29-12-.46-24.16-.64-36.14-1.16-4.31-.19-6.31,2-7.58,4.66l-9.48-6.09-1.62,3.7c-3-.71-6.56,2.73-10.4,1.35-4.71-1.69-12-.13-18.26.15-1.25.06-2.73.7-5,1.32l3.94-4.91-18.15-.06-.19,3.5c-6.66,0-12.35.06-17.94-.08q-13.78-.33-27.44-.9c-4.19-.18-8.16-.79-12.32-1-7.18-.42-14.39-.81-21.66-1-13.41-.43-26.71-1.15-40.38-1-9.12.13-18.81,1.62-27.34,2.41l5.74,4.65-2.86,2.17,1.37-4.27c9.24,1,18.22,2,27.35,2.74,1.68.14,4-.8,6-1.45,3.61-1.16,5.56-.36,6.33,1.61,2.85-.56,5.86-1.56,8.39-1.51,2.15,0,3.74,1.3,6.09,2.22L1157.4,159l3.22,2.62c3.46-8.33,3.4-8.23,11.75-7,3.19.45,6.73.3,10.1.43,8.64.35,17.37.5,25.84,1.17,2.4.19,4,1.89,6,2.9l-1.12,1.08-6.33.82-.58,2,25.28-1.27-4-4.34c7.24-3,24.82-2,28.09,1.92l-9.4,3.39,12.3,0-1.73-6.29,35.46.11-1.54,5.9,12.4,0-4.23-4.65,1.67-1.64,22,2.43-4.13,4.33h4.3c.48-5.12.46-4.54,6.34-5.06,4.49-.39,8.64.07,13-.1,12.83-.51,24.9,1,37.31,1.56,3.72.18,7.58.07,11.38.09,1.21,0,2.91-.42,3.54.1,2.45,2,5.79,1.17,9.67.11,2.22-.6,4.32.45,6.45.8.58.1,1.36.67,1.52.53,5.28-4.41,7.44-.62,11-.56,4.49.07,9.15-.19,13.48.17,6.45.54,6.7,2.63,1.59,8.36l8.89,0-1.34-7.6c3.38.27,5.56.62,7.89.61,7.79,0,14.61,1.27,20.61,4.12,1.33.63,5.26-2,7.45-1.94,9.23.25,18.24,1,27.36,1.47,6.88.37,13.85.57,20.68,1,3,.2,5.62,1.4,8.75,1.21,6.7-.42,13.63-1.44,20.46-2.22l2.8,1.1,11.23,4.8-9.9,3.5,16.7,2.7-1.2-6.87L1603,171l-7.23,4.65-11.63,0-.69,1.37,8.24,1.37-.92,1.51-31.59-.1-1.35,3.08,10-.69-.24,1.39c-2.13.52-4.37.67-6.38,1.64-3,1.46-5.92,3.5-8.88,5.29,1.4,1.23,2.49,2.79,4.24,3.62,6.17,2.93,12.56,5.61,19.86,8.82-3.95.2-7.06.34-10.18.52-2.39.13-4.31-.74-7.26,2.56-1.34,1.5-5.82,1.74-8.78,2.16-6.94,1-13.82,1.75-21.09,2.64l1.23,2.92-5.56.45c.9,3.37-1.18,4.14-4.86,3.41q0,.71,0,1.42l27.66,9.34-5.91,2.21c9.12,6.81,24.4,2.4,34,7.24l-15,.6c4.77,1.77,12.22-.14,13.22,6.51l-14.79-1.08-1,1.3c6.69,2,13.32,4,15.61,10.52-7.29-4.61-18.15-2.7-28.07-2.86l10.33,3.68-.56,1.25-8.82.67,3.31,3.82-1,.85c-1.94-.94-4-1.79-5.81-2.83-3.94-2.21-9-1.62-14.32,1.23-6.39,3.44-12.3,5.25-18,4.4a5.35,5.35,0,0,0-.52.64c.27.24.59.44,2,1.41l-14.88,0,5.23-3.63c-3.3-4.74-10.42-1.66-15.76-.54l-6.87-4.35-1.68,3.84c-2.63-7-11.46-3.87-18.73-3.14l.66-1.42,3.18-1,.15-1.12c-2.94.67-5.87,1.3-8.82,2.07-.48.13-1,.91-2.39,2.21l-.68-5.69c-.79,0-2.21-.46-3.51.06-11.63,4.61-18.5-.53-27.5-1.24-7.69-.6-14.8-2.34-22.58-2.74-14.13-.73-28.52-.92-42.91-1.12-2.48,0-5.44,1-8.11,1.57-1.16-.49-2.38-1.67-4.07-1.57-4.71.26-8.7-1.26-14.15.67-1.6.56-3.16-.82-5-.78a44.11,44.11,0,0,0-6.32,1.1c-1.37.25-3.25,1-4,.63-3.37-1.81-8.21-.55-12.27-.88-7.39-.6-14.8-1.17-22.31-1.53-2.09-.1-4.73.92-6.82.83-3.87-.18-7.39-1.1-11.31-1.13-2.45,0-4.77-2.19-8.11,1.47-.2.22-1.06.19-1.56.17l-28.45-1q-2.3-.08-4.63-.08l-131.15-.41L1045,249l-1.77,2.89c-5,0-9.59,0-14.13-.05-20.54-.36-41-.8-61.6-1.13-8.79-.14-17.63-.19-26.56,0-2.41,0-5.21,1.06-7.83,1.63l-.37,1.17h4.74c13,0,25.95,0,38.88.13q76.43.68,152.82,1.45c25.94.28,51.78.78,77.67,1.19,25.71.4,51.45.75,77.13,1.22q21.53.39,42.92,1.1c19.49.63,39.13,1,58.29,2.24,12.16.81,23.51,3.18,35.33,4.67,9.46,1.18,19,2.14,28.64,3.09,12.06,1.19,24.18,2.25,36.59,3.4-.44,7.25,6.62,7.79,13.27,8.22,7.95.51,16.33.17,24.84.19l-2.14,5.61-13.85,0-1.28,5.26c-14.62-6.75-31.62-8.33-49.1-9.23-1.48,3.22-1.48,3.22,8,6l-10.17,2.46,1.67,2.83-.69.76c-4.38-1.21-8.68-2.55-13.18-3.58-1.86-.43-4.33,0-6.19-.39-1.52-.36-2.27-1.85-3.81-2.16-5.81-1.15-11.77-2.07-17.72-3-6.44-1-12.68-2.41-19.45-2.74s-13.92.56-20.87.78c-2.51.08-4.83-.3-7.29-.36-2.72-.06-5.63.24-8.22,0-4.63-.5-9.08-1.34-13.63-2-15.14-2.22-30.48-4-47.7-1.95-3.64.43-6.76-.81-10.32-.8-37.92.13-76,.63-113.79.5-41.75-.14-83.25-.83-124.86-1.28q-60.35-.66-120.67-1.37c-9.4-.12-18.49-.95-27.93-.95-12.22,0-24.65.48-37,.79-10.26.26-20.57.65-30.8.84-17.21.33-34.51.86-51.5.71-11.42-.1-22.31-1.37-33.57-1.84-4-.17-8.42.59-12.56.72-4.93.15-9.78.09-14.66.09-5.92,0-11.93.18-17.7-.11-10.19-.52-20.28-1.27-30.32-2.08-5.73-.46-11.22-1.38-17-1.84-5.93-.47-12-.62-18.25-.92l-1.77,2.59a7.94,7.94,0,0,0-1.78-1.47,6.1,6.1,0,0,0-2.43-.34c-.37,0-1.09.68-1.36.61-3-.7-5.86-1.49-8.78-2.26l-.4,1.75-6.05,2.57,1.12-5.51-7.41,3.43c0-2.92-2.39-2.21-5.81,1.21.17-6.81-4.8-.09-7.86.09l2.42-3.76c-10.56-.72-20.88-2.16-31.86-2-15.84.25-32.13,1.56-48.34,2.76-1.58.12-4,2.69-6.34,4.34l-7.19-4.65L500,275.5l-7.72,0-.45,1.19,28.76-1.22c1.41-.06,2.79,0,4.17,0,19.18.06,38.6-.38,57.47.32,17,.63,33.19,2.77,50,3.71,7.66.43,16.07-.66,23.94-.62,8,0,15.85.63,23.77,1,8.26.34,16.55.62,24.79,1,6.91.32,13.74.79,20.65,1.12,2.48.12,5.05,0,7.82,0,1.59.54,3.31,1.54,5.46,1.75,3.29.33,6.94,0,10.31.14,23.73,1.31,47.27,3,71.2,3.91,12.84.48,26.26-.21,39.56-.73,17.93-.71,36-1.73,54-2.75,1.84-.1,4.06-1.33,6-1.61a13.17,13.17,0,0,1,4.93.24c2.66.66,4.81,2.32,7.71,2.35,58.66.64,117.41,1.07,176.1,1.63q60.9.57,121.71,1.36,22.1.29,43.94,1.13c8.72.35,17.09,1.44,25.78,1.87,3.47.17,7.61-1,11-.77,16.36,1.15,32.56,2.61,48.86,3.88,5.95.46,12,.77,18,1,8.92.41,18.05.41,26.8,1.15,10.62.89,21,2.29,31.38,3.62,9.85,1.26,19.59,2.71,29.56,4.1,1.95-7.93-10.33-3.43-10.73-9.69,4.06,1.52,10.44-3.63,13.22.1,9.13-2.76,15.92-.88,22.52,1.37,5.05-4,7.37-1.29,10.42-.29,3.23,1.06,6.52,2,10.44,3.27l.16-2.89.78-.54,2.88,4.28.69-.44-.35-2.92c6,.82,11.2,1.52,16.41,2.29.53.08,1.27.65,1.16.82-2.8,4.08,1.12,2.72,3,3a3.91,3.91,0,0,1,2.51,1.14c-23.76,1.18-46.74.81-68.31-2.56l-1.84,3.45,4.06,2.1-.76.67c7.51.92,15.17,1.59,22.44,2.89a13,13,0,0,1,7.42,3.8c3.56,4.14,8.93,5.25,15.82,5,5.88-.25,11.29.7,17.06.79,1.92,0,4.35-1.11,6.45-1.38,1-.13,1.75.55,1.85,1.91L1519,322.32l1.56,8.82-7.33-4.86-.81.76,3.25,8.2c-5,0-9.26-3.76-14.48,3.46-1.91-7.81-12.23-5.8-19.06-7.6a350,350,0,0,0-38.17-7.34c-4-.59-9.5,1.2-14.53,2.55,15.79,2.13,33.74.42,46.37,7.68-8.23,3.88-15.09,2.9-22.58,3.19-.49,3.72,1.65,4.75,5.41,4.82,10.41.19,20.72.59,31,1a64,64,0,0,1,8.63,1.12c.47.08.37,1.08.92,3l-15.27,0c8.42,4.65,21,2.66,29.09,7.29l-1.13,1.93c-9.22-1-18.81-1.47-27.55-3.23-11.11-2.23-21.51-5.56-32.27-8.34a21,21,0,0,0-6.13-.85c-13.65.53-25.9-1.38-38.11-3.6-5.4-1-11.51-2.68-19.49,2-2.36,1.38-5.82.44-9.42.59l4,1.83-2.22,1.64c16.5,2.64,33.25,5.59,50.36,7.94,9.1,1.25,18.72,1.62,28.24,2.13,18.48,1,36.86,2.11,53.66,6.07.38.09.59.43.3,1.75-5.4-.36-10.86-.61-16.19-1.11-5-.47-9.91-1.26-14.92-1.78-16.22-1.68-32.43-3.39-48.73-4.92-9.32-.88-18.91-1.26-28.22-2.17-11.7-1.14-23-3-34.91-3.77-13-.86-26.45-.91-39.76-1.19-21.54-.45-43.52,0-64.59-1.38-28.16-1.84-55.75-4.79-85.22-3.89-12.31.37-25,1.61-37.12,1.58-12.3,0-24.12-1.17-36.15-1.81-.51,0-1,0-1.55,0-29.86-.41-59.63-1-89.61-1.18-22-.1-44.31.34-66.56.72-14,.24-28.13.84-42.47,1.86l173.53.54-.06,1.71c-1.25.7-2.76,2-3.72,2-12,.08-24,.19-35.75-.14-18.68-.51-37.05-1.7-55.86-1.92-11.05-.13-22.9,1.55-34,1.55-9.72,0-18.73-1.64-28.41-1.77-12.49-.16-25.27.3-38,.79-8.32.32-17,1.44-25.25,1.67-3.53.1-6.52-1.18-9.75-1.83l1.12-2,52.57.16.82-1.63c-3.72-.64-7.21-1.79-11.2-1.83-12.68-.14-25.54.12-38.34.24-.85,0-1.81.27-2.66.27-14.7,0-29.49.16-44-.18-19.91-.47-39.63-1.35-59.44-2-1.53-.05-3.1,0-4.9,0l-2,4.58-5.23,0,3.76-5.33-40.81-.13-1.71,5.3-1.58.16,1.07-5.26-5.08,5,.83-4.93c-12.32-3.82-27.6.31-42.28,2.74-3.22.53-6.43,1-9.61,1.41-.83.1-2.2-.07-2.19-.46.13-6.53-6.88-1.72-10.66-1.91-1.48-.08-3.47.87-5.83,1.52l1.82-3.53c-5.21-.74-8.82.92-10.65,5.33,3.42,0,6.92-.1,10.28.06,4.51.22,9.84-.39,13.17,1.2,5.9,2.84,14.32-1.59,20.54-.22,3.59.79,7.54,1,11.36,1.52-2.6,2.55-2.6,2.55-11.58,2.75,3.56,3.13,9.89,2.83,15.35-.61a6.59,6.59,0,0,1,2.41-.42c-2,6.36,5.4,3.12,8.22,4.36,3.73,1.64,8.84,1.79,13.61,2.09,3.54.22,7.5.2,12.63-4.69l-18.13.88.28-1.46c1.7-.45,3.57-1.28,5.08-1.28,16.11,0,32.25-.15,48.19.19,6.37.13,12.12,1.6,18.41,2,5.94.34,12.3-.17,18.3.05,4.75.17,9.24.88,13.84,1.35l-.47,1.18a45.9,45.9,0,0,1-4.75.3c-16-.66-32-1.45-48-2-6.8-.25-13.8-.08-20.71-.1l-1.13,1.51c1.37.47,2.59,1.35,4.16,1.29s3.56-1.07,6-1.87a19.51,19.51,0,0,0,4.54,1c12.53.46,25.25.53,37.67,1.22,7.05.39,13.64,1.72,20.44,2.62ZM504,341.91c-4,2.22-32.82,2.7-37.31.47l14.52-1.71.35-1.11-25.73,1.33,5.32,1.86c-5.3,1.61-8.88,3.83-12.22,2-1.76-1-4.41-1.09-6.87-1.11s-5.52,1-7.89.77c-3.29-.31-8.7,2.06-8.91-2.52l-5.23,2.57a50.8,50.8,0,0,0-7.66,1.06c-2.68.7-3.55-4-8,1,37.12-.83,72.44,1.38,111-1.06-3.28-3.2-5.33-6.14-11.22-.33Zm686.87-2.39a10.36,10.36,0,0,0-.5,2c4.32.21,8.57,1.1,13.09.08,1.56-.35,2.19-.61,3.31,0a10.94,10.94,0,0,0,4.21.58q17.53.58,35.11,1.07c4.44.12,8.95.1,13.48,0a10.63,10.63,0,0,0,2.85-1.14c-.55-.56-.88-1.57-1.68-1.6-2.24-.11-4.78.39-7,.29-17.64-.79-35.22-1.7-52.9-2.41-1.32-.05-3.27,1.2-6.12,2.31ZM841.39,154.86c-.47,1.61-.66,2.15-.63,2.15,20.23-.61,38.54,3.32,60.58-1.09l-1.16,3.94c5.15,0,9.85.23,14.73,0a24.93,24.93,0,0,0,6.86-2c.56-.22,1-1.57,1.49-2.4-1-.06-2.74-.25-2.79-.17-2.57,4.26-4.79,1.53-6.44,1.51-4.32-.07-8-1.59-12.32-1.64C881.74,154.87,861.63,154.92,841.39,154.86Zm532.38,188.75-34.51-.11c-6.89,0-13.77-.09-20.7,0a31.25,31.25,0,0,0-4.7.8,7.91,7.91,0,0,0,5.1,2c15.44.45,31,.68,46.36,1.23A9.22,9.22,0,0,0,1373.77,343.61Zm-773-.39.9-1.57c-1.75-.29-3.44-.66-5.26-.83-1.59-.15-3.4.09-5-.09-3.69-.43-7.08-1.56-11-1.43-8.42.29-17.07,1.19-25.63,1.84l-.72,1.69c7.12,0,14.24,0,21.34.08,1,0,1.94.19,2.91.29l-2.19,2.94,7.66,3.8c.56-.91,1-1.51,1.28-2.11,3-5.92,4-6.42,9.77-5.07A40.17,40.17,0,0,0,600.79,343.21Zm669.56-1-.21,2.38,41.15.13c-.11-.57-.08-.79-.17-.81-10.93-1.44-21.78-3-32.9-4.14C1276.15,339.54,1273,341.32,1270.35,342.19Zm-704.47,5.62-.12-.45L546.56,343l-1.41,1.21-.78-3.85-3.49,5.31-6-3.14c-2.72,2.2-2.48,3.16,1,3.41,5.58.4,10.84,1.41,16.42,1.81C556.69,348,561.35,347.79,565.88,347.81ZM1149,338.74l-.37.74c7.79.53,15.59,1,23.36,1.58,3.94.28,7.78.78,11.81.85,1.2,0,2.91-1.06,4.38-1.64l.1-1.42ZM982.78,158c13.65,2.15,35.74,1.49,38.17.12ZM408.87,365.94l.25-1-34.79-.11-.42,1Zm728.51-204.25,1.33-2-17.23-1.39-.86,1.52C1124.4,163.49,1132.12,160.51,1137.38,161.69ZM516.4,377.6l-1,2,13.74,1.2.54-1Z"/><path class="cls-1" d="M437.79,54.88c-3,.75-6.18,1.94-9,2.14-4.79.35-9.27-.18-14,.1-20,1.15-40.08,2.46-60.12,3.72l-.53,1.42,38.3,1.65-.3,1.56c-3.26.7-6.75,2-9.74,2-22.93.41-46,1.1-68.54.65-12.94-.26-25-2.44-37.43-3.81a10.44,10.44,0,0,1-3.44-1c-.5-.25-.53-1-.78-1.53a11,11,0,0,1,2.31-1.22c2.84-.65,5.65-1.15,8.59-2.11-3.85-1.64-7.41-3.39-13.37-1-2.68,1.07-10-4.34-10.21-7.08l6.45-1.29.27-1.51-13.51,2.95c3.58-5.66,13-7.9,19.14-4.23l.23-4.62,1.14-1.21c2.21,1.38,4.58,2.61,6.6,4.16,3.17,2.43,7.84,2,12.65,1,3.2-.67,6.56-2.41,9.81-3.28s7.11-2,10.08-1.87c13,.73,25.78,1.8,38.51,3,2.26.21,3.87,1.64,5.73,3.63L337.33,51l-.45,1.53,101.38.32Zm-89.26,6.23c-21.47-2.66-51.51-3.4-57.29-1.4C297,65.33,340.3,66.39,348.53,61.11Z"/><path class="cls-1" d="M1398.95,399.71c-10.56,0-21.18,0-31.67-.14a159.94,159.94,0,0,1-16.43-1.1c-10.39-1.27-20.48-3.11-31-4.19-7.06-.73-14.58-.6-21.93-.79-14-.35-27.92-.7-41.93-.94-2,0-4.36.81-6.34.77-13.17-.25-26.28-.63-39.42-1l-2-.06c-18.45-.38-36.93-.71-55.35-1.16-8-.2-15.78-.8-23.8-.9-1.7,0-4,1.42-6.06,2.05a6.29,6.29,0,0,1-2.13,0c-14.43-.45-28.69-1.3-43.34-1.24-13.56.06-27.81,1.67-41.26,1.5-12-.15-23.32-1.9-35.05-2.73-2.75-.19-6.1.8-8.92.71-12.31-.41-25.84,1.67-36.6-1.91a22.26,22.26,0,0,0-6.08-.95c-12.45-.46-24.95-.82-37.1-2.33,2.84-.54,5.76-1.34,8.49-1.56,5.84-.49,11.68-.93,17.33-.94,19.4-.06,38.78,0,58.06.17q32.44.37,64.68,1.18c18.86.5,37.55,1.36,56.31,2.06l56.29,2.1c9.81.36,19.6.76,29.45,1q21.68.62,43.44,1.1c19.64.42,39.51.39,58.92,1.28,15,.69,29.32,2.89,44.29,3.71,11.83.65,24.31,0,36.25.39,5,.17,9.29,1.68,13.9,2.58Z"/><path class="cls-1" d="M763.73,62.89c1.37-.6,2.9-1.65,4.1-1.74,6-.44,12.92-2,17.59-.63,12.94,3.9,29.65-.28,43,2.49,5.49,1.14,11.93.82,17.92,1.2,16,1,31.93,2,47.86,3.06,14.43,1,28.65,2.34,43.25,2.94,24,1,48.11,1.67,72.33,2.15,9.56.19,19.86-1.18,29.22-.63,12.86.76,27.05-2,39.77-1,6.11.47,12.26.88,18.54,1,9.82.19,19.76.1,29.65.13l5.43,0-.28,1.53c-1.26.45-2.71,1.3-3.75,1.27-7.11-.21-14-.83-21.21-.87-6.14,0-12.62.7-18.81.77-10.6.12-21-.14-31.64,0-15.77.17-32.21,1.65-47.33.57-43.81-3.13-90-.93-134.51-2.36-15-.48-28.68-3.69-43.08-5.44-5.8-.71-11.83-1-17.9-1.23-14.59-.47-29.29-.74-43.9-1.17a39.86,39.86,0,0,1-5.58-.9Z"/><path class="cls-1" d="M577.87,388.07c4-3.79,8.13-3.75,12.12-3.37,5.36.51,10.48,1.48,15.93,1.8,9.37.55,18.9.78,28.39,1.09,1.6.05,3.3-.13,5-.2l.67-1.24c-3.8-.49-7.6-1-11.39-1.47a64.34,64.34,0,0,1-8.47-1.29c-1-.26-1-1.84-1.4-2.81,1.36-.3,2.94-1,4-.83,3.62.51,7,2.78,10.58,1.69,6.88-2.13,8.79,2.1,14.35,2.12l-3.8,2.89.17,1c2.44-1,4.87-2.09,7.31-3a9.5,9.5,0,0,1,2.81-.19c-2.46,4.35,2.1,2.26,3.68,2.33,13.19.54,26.64.53,39.72,1.27,18.49,1.05,36.57,2.93,55.17,3.77,6.66.3,14.3-1.42,21.76-2.24l-1.61,2.35,14.87,2c-2.2,3.1-4,3.9-8.36,3.39-7.87-.93-16.84.07-25.36.28-1.21,0-2.47.17-3.69.22-6.47.31-13.15,1.05-19.35.79-9.71-.4-19.14-1.4-28.59-2.32-7.31-.71-14.33-2-21.73-2.49-16.91-1.2-34-2.06-51-3.14-9.13-.58-18-1.69-27.34-1.85-8-.14-16.39.74-24.62,1.16Z"/><path class="cls-1" d="M1352.52,446.83c-5.82,4.45-10.51,2.71-15.32,2.6-7.21-.16-14.2-.8-21.17-1.45-11.73-1.09-24.42-.64-33.81-5.6-.92-.49-2.72-.9-3.68-.36-5.83,3.29-9.47,1.62-13.7.71-2.17-.46-5.47.88-7.93.74-8.16-.45-16.15-1.23-24.23-1.83-5.79-.43-11.72-.6-17.44-1.16-7.67-.75-15.19-1.77-22.77-2.68l1-2.15c20.46.06,40.94.07,61.36.23,4.42,0,8.52.76,12.89.92,17.1.63,34.21,1.19,49,5.88,2.14.68,5.26.09,8,0,7.29-.23,14.82-1,21.79-.54C1349.12,442.3,1350.4,445.06,1352.52,446.83Z"/><path class="cls-1" d="M1407.23,363.22c-5,.62-9.19,1.24-13.3,1.64q-7.08.68-14,1a21.07,21.07,0,0,1-4.07-.65c-5.53-.77-10.92-1.8-16.64-2.2-7.34-.52-14.94-.51-22.42-.77-1.34,0-2.55-.36-3.89-.42q-24.75-1.07-49.52-2.1c-8.25-.35-16.48-.75-24.77-1-12.2-.41-24.37-.89-36.7-1-6.47-.07-13.4.89-19.85.78-40-.65-80-1.5-120-2.23-8.09-.15-16.3,0-24.41-.13a4.36,4.36,0,0,1-3.84-1.89l5.18,0c32.29.1,64.69,0,96.84.39,19.64.25,38.83,1.53,58.41,1.91,6.36.12,13.64-1.74,20-1.62,14.1.26,27.88,1.25,41.84,1.82,1.95.08,4.43-.92,6.33-.77,11,.84,21.84,2.08,33,2.75,7.79.47,15.92.24,23.9.32a4.8,4.8,0,0,1,1,0c12.86,3.39,28.18,2,42.27,3,3.4.24,6.05,2.38,10.81-1.73,1.1-1,4.53-.44,6.49,0C1402.22,360.79,1404.19,362,1407.23,363.22Z"/><path class="cls-1" d="M1317.94,434.81c5.84.29,11-2.93,16.64-5.45s12.11-2.43,17.82-2.54c3-.06,7.72-1.1,7.57,3.28,0,.58,3.12.26,4.83.28,5.38,0,10.77,0,15.53,1.19l-10.79,3.85,1.7,4.78-17.14,3.46,2.12-2.46c-12.15-1.65-24.37-3.28-36.54-5C1318.9,436.08,1318.52,435.28,1317.94,434.81Z"/><path class="cls-1" d="M751.82,379l-4.61,5.13.88,2-1.2,1.37-16.73-4.72c0,3.37-2.13,3.79-5.84,4.31-16.22,2.28-29.47-.67-42.45-4.22-.41-.11-.65-.47-1-.73l4.13-3.34Z"/><path class="cls-1" d="M657.59,51.08l-4.91,0C646.46,51,640.26,51,634,51c-40.65.18-81.17.07-122,.74-16.12.26-33,2.33-49.47,3.46-3.67.25-7.18,0-10.76,0l.3-1.55c1.81-.43,3.76-1.19,5.41-1.22,6.62-.12,13,.34,19.73-.07,16.6-1,33.34-2.37,50-3.57,1.24-.09,2.44-.05,3.65,0q61.39.19,122.77.39c1.61,0,3.15.17,4.72.26Z"/><path class="cls-1" d="M836.69,388.66l-8.07-.8-.28.84c-2.85.23-5.77.64-8.52.65-6,0-12,0-17.95-.29-11.64-.49-23.46-.71-32.95-4.83a33.66,33.66,0,0,1-3.4-1.93l1.15-2c4.8,0,9.7-.18,14.37.09q12.43.74,24.6,2c2.65.27,4.69,1.74,7.41,1.76A67.09,67.09,0,0,0,826.74,383c3.27-.65,5.18-.77,6.18,1.72.57,1.4,3,1.78,4.57,2.63Z"/><path class="cls-1" d="M1034.48,80.33a36.73,36.73,0,0,1-5.08.8c-25,.29-50.08.86-74.84.66-18.66-.15-36.9-1.27-55.3-2-6.57-.26-13.08-.64-19.59-1a7.84,7.84,0,0,1-3.43-1c15,0,30.14,0,45.12.19,6.83.09,13.32,1,20.17,1,31,.2,62.17.24,93.27.34Z"/><path class="cls-1" d="M1435.42,403.55l-17.06-.05-.63,1.07,32.67,6.23-.55,1.15c-6.45,0-12.9,0-19.34-.06-4.56,0-8-2.45-13.84.11-1.5.66-3.37-.42-5-.76-4-.83-8-1.7-11.47-3.51l16.34.05,1.26-1.88L1400,399.79C1409.64,397.36,1430.82,399.45,1435.42,403.55Z"/><path class="cls-1" d="M220.06,451c-7.33.59-14.59.93-22,1.81-15.37,1.81-30.83,4-46.21,5.8-1.47.18-2.6-.79-3.9-1.23,1.62-1.28,3.43-3.46,4.83-3.71,10.36-1.82,20.77-3.68,30.9-4.66,7.29-.71,14.21-.19,21.21,0,5.37.1,10.62.46,15.92.71Z"/><path class="cls-1" d="M1534.9,92.9l28.21.09-2.68-2.31.79-1.18a55.92,55.92,0,0,0,7,1c6.48.16,13,.4,19.66,0,3.55-.22,7.6-1.89,11.37-2.62,1.21-.23,2.25.45,2.92,1.9-5.26,1.09-10.58,2.4-15.77,3.21-14.07,2.18-28.16,4.41-42.09,6.06-4.84.57-9.1-.61-10.58-4.38Z"/><path class="cls-1" d="M1042.65,358.22c-3.32,5-7.11,3.76-9.78,3.48-12.34-1.3-25.65-.45-38.3-1a116.17,116.17,0,0,1-23.09-3.27C996.75,354.15,1018.69,358.14,1042.65,358.22Z"/><path class="cls-1" d="M595.19,375a13.84,13.84,0,0,1,.82-1.85c1.26-.15,2.78-.5,3.63-.1,6.67,3.07,16.2.1,23.9,1a54.07,54.07,0,0,1,9.57,1.64c-7.15,3.94-12,1.64-17.78,1.27l1.9,6.69-45.74-4.14.76-1.58,30.83,1.85-8-4.9Z"/><path class="cls-1" d="M1467.81,366c-26.66-1.78-53.35-3.31-77.79-8.76C1417.57,357.35,1443.93,359.58,1467.81,366Z"/><path class="cls-1" d="M379.53,73.35l84-4C453.83,74.52,384.51,77.74,379.53,73.35Z"/><path class="cls-1" d="M1128.43,429.54c2.28,1.83,3.52,3,5,4,2.4,1.56,7.43.71,7.45,5.5-9.88.78-17.85-.07-24.34-3.61-1.88-1-4.31-2.28-6.75-1.76-6.27,1.35-11,.58-15.23-1.57-1.07-.55-2.45-.75-3.37-2.23,1.48-.3,3.25-1.05,4.38-.82A95,95,0,0,0,1128.43,429.54Z"/><path class="cls-1" d="M159.8,477.69c-7.84-1-15.22-1.59-22-3.1-2.54-.56-5.3-3-4.93-5.14.43-2.53,4.09-5.81,6.67-8.59.31-.33,3.89,0,4,.75.73,8.57,7.45,12,15.47,14.49C159.36,476.21,159.37,476.78,159.8,477.69Z"/><path class="cls-1" d="M1380.44,458.67,1366,462c-1.12-1.12-1.47-4-6.25,0-.41.34-1.76-.11-2.62-.28s-1.77-.91-2.63-.62c-3.33,1.11-2.71.7-4.85-1.12-1.23-1-4.83,0-7.35,0-1.56,0-4,.68-4.5,0-2.12-3.28-4.48-3.33-10-.74-3.91,1.82-7.26,1.48-9.5-1.65l8.64-.66-6.55-2.07c20.93-.91,37.78,6.6,60.3,2.39Z"/><path class="cls-1" d="M1131.72,348.11c-4.22,1.09-8.58,2.69-12.62,3.17-8.19,1-16.35,1.68-24.25,1.84-3.54.07-6.55-1.29-9.56-2.32-1.68-.57-2.88-1.78-4.29-2.7l1.24-1.59c3.05.35,6,.91,9.18,1,6.65.17,13.44,0,20.13.13s13.44.33,20.16.5Z"/><path class="cls-1" d="M1038.37,79l89.52.28-.33,1.81c-1.9.45-4,1.35-5.68,1.29-14.87-.57-29.56-1.52-44.52-1.9-8.12-.21-16.74.71-24.95.67-5,0-9.63-.88-14.43-1.37Z"/><path class="cls-1" d="M908.53,357c1.32-.73,2.85-2,3.93-2.1,4.43-.26,8.73-.15,13.07-.16,3.25,0,6.54-.08,9.72.06,6.22.28,12.45.56,18.51,1.14,1,.1,1.3,1.67,2.09,2.81l-32.28-.1.08,3.35-15.2-5.15Z"/><path class="cls-1" d="M873.09,53.3l60.74,4.75C922.32,61.69,876.09,58.26,873.09,53.3Z"/><path class="cls-1" d="M924.53,392.66l64.31.2-.62,1.4c-10.43,0-21,.23-31.25-.18C946.3,393.65,933.29,397.91,924.53,392.66Z"/><path class="cls-1" d="M793.38,358l4.31-5.53,5.08.33-6.45,4.68c10.05-1.28,19.63-2.28,27.23,1.61-1.59.69-3.4,2-4.72,2-5.39.12-10.64-.11-15.92-.27-.79,0-1.54-.76-2.15-.48-4.93,2.26-6.11-.18-7.48-2.46Z"/><path class="cls-1" d="M1131.71,348.14q22.15.3,44.29.6c5.27.06,10.58,0,15.87.06l-.49,1.5a37.18,37.18,0,0,1-4.51.42c-10.56-.34-21-.82-31.63-1.1-6.24-.16-12.67.1-18.9-.07-1.74,0-3.09-.94-4.62-1.44Z"/><path class="cls-1" d="M688.76,368.75l17.37,1.14-.41,1.13-6.3.67-.18.39c4.26.44,8.44,1,12.8,1.26,4,.21,8,.35,10.5,2.32l-1.45,1.93c-4.23-.72-8.45-1.46-12.69-2.16a4.5,4.5,0,0,0-2-.08c-6.5,1.86-10.29.26-12.88-3.52-.9-1.31-3.56-1.42-5.42-2.08Z"/><path class="cls-1" d="M1444.81,370c-12.56,1-24.21.37-33.52-4.2C1424.07,364.41,1434.67,366.79,1444.81,370Z"/><path class="cls-1" d="M908.44,356.86c-1,.84-2.44,2.43-3.07,2.41-6.85-.26-13.57-.81-20.36-1.2-2.35-.14-4.89.09-7.17-.17-.93-.11-1.38-1.07-2-1.65l1.27-1.08c.94.41,2,1.46,2.81,1.11,7.07-3,12-.95,17.74-.64,3.77.2,9-2.1,10.89,1.36Z"/><path class="cls-1" d="M1430.15,425.18l-8.8,1.82-.92,5.08-1.37.55-.61-2.56L1408,427.93C1414.36,422.89,1427,421.3,1430.15,425.18Z"/><path class="cls-1" d="M1100.64,435.79c-.91.81-2,2.24-2.7,2.32a69,69,0,0,1-7.81.09l2.18,2.33-28.62-4.18c3.09-.53,4.87-1.09,6.36-1,5,.19,9.88.8,15,.89s10.4-.23,15.61-.38Z"/><path class="cls-1" d="M528.73,423.26c-8,3.11-31.64,1.78-32.92-1.36l14.92,0c5,0,10.05,0,15,.05C526.64,422,527.26,422.61,528.73,423.26Z"/><path class="cls-1" d="M733.19,375.94,731,378.35l-6.57-3c12.59-2.89,21.26-1.05,29.26,2.13C746,378.57,738.83,378.86,733.19,375.94Z"/><path class="cls-1" d="M1206.65,452.72l-36.78-.11.15-1.42c1.82-.43,3.84-1.27,5.44-1.22,8.94.26,17.77.74,26.66,1.12,1.72.07,3.51,0,5.26,0Z"/><path class="cls-1" d="M1228.19,349.91c6.19,0,12.23.49,18.61-.07s13-1.69,17.21,1.68c-12.29.15-25,1.22-36.55-.17Z"/><path class="cls-1" d="M919.65,394.59c-12.2,2.11-22.16-.95-33.6-.6l.51-1.21,33.7.1Z"/><path class="cls-1" d="M253.51,40.86c-10.35.59-15.64-2.85-13-8.34C247.57,32.34,250.38,36.18,253.51,40.86Z"/><path class="cls-1" d="M1418.35,258.17l7.82,1.15-.15,1.21c-1.94.4-4.2,1.32-5.77,1.09-4.14-.61-8-1.73-12-2.67,2-4.42,8.41-5.64,16-2.35l-5.12.57Z"/><path class="cls-1" d="M789.73,45.18a7.89,7.89,0,0,1-.88,1.15c-9.25-.56-18.49-1.12-27.64-1.88-.88-.07-1.11-1.37-2-2.51l30.45,3.27Z"/><path class="cls-1" d="M1356,78.91l30.77,1.55-.65,1.28c-10.49-.09-22.2,2.26-30.93-1.33Z"/><path class="cls-1" d="M763.73,62.89l.7,1.11-25.75,1.23C742.35,61,753.92,60.31,763.73,62.89Z"/><path class="cls-1" d="M685.84,426.84c4.41.21,8.85.36,13.22.64a104.31,104.31,0,0,1,10.74,1c.9.15,1,1.66,1.49,2.66l-26.65-1.82Z"/><path class="cls-1" d="M453.32,361.38c-9.82,2.63-19,3.74-25.93-.08Z"/><path class="cls-1" d="M1294.34,351.77l-26.27-.08.69-1.4C1277.58,349.6,1287.33,347.07,1294.34,351.77Z"/><path class="cls-1" d="M397.73,414.79l-29.6-.09.72-1.55,29.69.09Z"/><path class="cls-1" d="M1477.94,356.7l-20.9-3,.72-1.64c7.16.84,16.65-2.18,21,3.28Z"/><path class="cls-1" d="M1352.64,382.27c-8.31-2.19-19.81,2-27.18-2.06l.64-1.29,27.42,1.48Z"/><path class="cls-1" d="M1168.32,73.87l26.47.08-.8,1.87c-3.73,0-7.47,0-11.2,0-4,0-8,0-11.85-.18C1170,75.55,1169.45,74.66,1168.32,73.87Z"/><path class="cls-1" d="M1443.45,462.34l-12.42,0,1.83,2.9c-1.4.22-3.06.84-4.15.59-5.43-1.24-5.37-1.32-3.82-5.53l18.87,1.39Z"/><path class="cls-1" d="M1611,97.79c-9.69,3.83-16.51,1.83-23.69.55l.85-1.7Z"/><path class="cls-1" d="M1561.51,166.77l-2.8-1.1-4.67-2.17c11.78-1.77,16.54-1,18,3.3Z"/><path class="cls-1" d="M769.75,377.56c8.78-5.28,12.57.83,19.35.25C781.06,381.55,776.49,377,769.75,377.56Z"/><path class="cls-1" d="M1069.27,361.55l-14.54,1.67.27-5.37C1059.66,359.18,1066.26,356.44,1069.27,361.55Z"/><path class="cls-1" d="M789.71,45.21c4.82.2,9.69.28,14.43.64,3.1.23,6,.87,8.78,1.3-5.09,2.86-17.46,1.91-23.19-2Z"/><path class="cls-1" d="M138,252.81c-5.67,5.9-11.49,6.34-17.25,1.61Z"/><path class="cls-1" d="M1164,431.37c3.39-2.83,21.38-2,25.27,1.44Z"/><path class="cls-1" d="M863.3,399.68l19.24-1.44C877.73,402.46,867.62,402.93,863.3,399.68Z"/><path class="cls-1" d="M316.58,13.57l18.79,3L334.53,18c-7.41.74-14,.18-18.9-3.23Z"/><path class="cls-1" d="M817.63,377l20.87,2C831.7,382.09,818.57,380.88,817.63,377Z"/><path class="cls-1" d="M68,463.35l-19-3,1.22-2,19.15,2.78Z"/><path class="cls-1" d="M235,62.06c2.12-1.48,4.52-4,6.31-4.23,4.17-.56,9.11-4.68,13.7-2.65L236,63Z"/><path class="cls-1" d="M1034.73,437.09c-4.83-.61-11.35,1.45-14.22-2.22l1.18-1.92,14.36,2Z"/><path class="cls-1" d="M760.49,372.32l-20.31-.06.8-1.69C747.53,371.06,755,369.62,760.49,372.32Z"/><path class="cls-1" d="M1377.27,406.73l-22.35-.07.94-2.09c7.24.36,14.49.71,21.68,1.17C1377.69,405.75,1377.15,407.12,1377.27,406.73Z"/><path class="cls-1" d="M376.58,75.76c-7.06.34-14.13.69-21.15.94-.17,0,.08-1.07.22-2.65C362.51,75.7,371.41,71.84,376.58,75.76Z"/><path class="cls-1" d="M702.49,51.22c-5.44-.59-12,1.41-16.41-2C695.35,47.31,702.45,48.05,702.49,51.22Z"/><path class="cls-1" d="M1400.18,466.62l5.73-4.91,7.25,1-3.45,4.57Z"/><path class="cls-1" d="M1106.35,382.19c-8,1.6-14.82.46-21.56-.84C1093.11,379,1099.23,381.76,1106.35,382.19Z"/><path class="cls-1" d="M980.84,424.35l2.64,3.4-1,1.27-12.76-1.08,2.61-3.55,7.72,1.15Z"/><path class="cls-1" d="M160.07,131.48c7.19-5.21,13.61-7,14.65-5-2.51,1.68-4.93,3.86-7.48,4.84C165.18,132.13,163,131.49,160.07,131.48Z"/><path class="cls-1" d="M840.63,357c3.78-.52,6.76-1.07,9.61-1.24a3.26,3.26,0,0,1,2.54,1.28c.23.27-.64,1.87-1.06,2-2.3.84-5.11,2.18-6.79,1.86C843.06,360.54,842.23,358.57,840.63,357Z"/><path class="cls-1" d="M1169.12,73.07c-1.64,1.37-2.73,2.62-3.14,2.58-5.27-.5-10.43-1.18-15.62-1.82l.94-1.66Z"/><path class="cls-1" d="M813.16,394.91l-20-.06.85-1.83,19.61.89Z"/><path class="cls-1" d="M762,387.64l-8-6.06C762.39,379.29,762.44,379.33,762,387.64Z"/><path class="cls-1" d="M136,460.49c-7.77,2.65-10.42,2-9.9-3.54L136.82,459Z"/><path class="cls-1" d="M1405.82,420.09c-6.63-.29-15,2.61-19.71-.9l.89-1.55c3.11.42,6.21.86,9.33,1.26S1402.65,419.7,1405.82,420.09Z"/><path class="cls-1" d="M1236.94,420.13l18,.83-1.22,2.38-17.8-1.57Z"/><path class="cls-1" d="M957.61,356.22c3.07-.3,6.35-1,9.2-.78,1.62.1,2.55,1.57,3.17,3C965.18,358.41,958.06,361.83,957.61,356.22Z"/><path class="cls-1" d="M1542.41,82.1l-25.54-3.17.61-1.07,25.81,2.68Z"/><path class="cls-1" d="M1148.9,74.24l-15.91,0C1141,69.88,1144.83,72.45,1148.9,74.24Z"/><path class="cls-1" d="M1265.25,456.22l-16.84-.76,1.16-2.28,16.54,1.32Z"/><path class="cls-1" d="M1375.91,383.57c-4.84-.59-8.52-1-12.13-1.52a1,1,0,0,1-.73-1.14,3.23,3.23,0,0,1,1.44-1.49C1366.73,378.41,1374.7,380.71,1375.91,383.57Z"/><path class="cls-1" d="M1210.74,348.62l16.21,1-1.14,2.14-16.21-1.16Z"/><path class="cls-1" d="M170.69,96.43l-4.63-1.71,1.13-1.38,5.34,2.47a64.38,64.38,0,0,1-6.25,6.06c-.77.59-2.64-.05-4-.13l.29-1.39Z"/><path class="cls-1" d="M70.71,408l-17.43-2.87C58.86,402.72,69.72,404.73,70.71,408Z"/><path class="cls-1" d="M483.38,361.14l16.94.05C493.48,364.14,484,363.36,483.38,361.14Z"/><path class="cls-1" d="M1063.34,436.4a4.83,4.83,0,0,1-1.39.65c-5.31,0-10.59,0-15.9,0,1.13-2,1.12-2,8.07-1.83,3.19.07,6.42,0,9.63,0Z"/><path class="cls-1" d="M863.53,357.84c.2-2,.91-3.2,3.83-3.32,5.33-.23,7.33.74,6.11,4.16l-10-1Z"/><path class="cls-1" d="M1551.06,294.15c-4.46-.4-8.94-.76-13.33-1.28-.46-.05-.39-1-.57-1.58,1-.39,2.18-1.2,2.83-1.09,4.05.68,8,1.56,12,2.38Z"/><path class="cls-1" d="M437.89,56.75c1.63-2.16,2.79-4.13,3.17-4.14,3.54-.11,6.94.12,10.38.25l-.84,2.06Z"/><path class="cls-1" d="M595.1,374.9c-1.36.84-3.25,2.51-4,2.37a65.07,65.07,0,0,1-8.44-2.61l1.49-2.1,11,2.48Z"/><path class="cls-1" d="M750.18,430.75l17,.05C760.77,433.81,752.53,433.8,750.18,430.75Z"/><path class="cls-1" d="M1441.71,72.82c3.07,0,6.24-.15,9.2.08a35.15,35.15,0,0,1,8.08,1.67C1451.69,77,1447,74.38,1441.71,72.82Z"/><path class="cls-1" d="M829,356.22l10.81,1.43c-1.49,1.39-2.69,3.09-3.65,3.3C831.47,362,830.27,359.11,829,356.22Z"/><path class="cls-1" d="M176.12,177.16c-3.34,3.88-7,5.09-11,4.2l-.25-1.42,10.84-4.68Z"/><path class="cls-1" d="M1369.77,450.86l16.1,1.3C1379.69,455.45,1374.36,455,1369.77,450.86Z"/><path class="cls-1" d="M1289.27,416.54l18.34.06-1.09,2.22-17.66-1.38Z"/><path class="cls-1" d="M1406.29,344.76c-3.73-1-9.71,1.68-11.91-1.71l.89-1.49,12.34.92Z"/><path class="cls-1" d="M1216.92,155c2.73,1.2,7.32.6,4.26,5.62l-6.71,0Z"/><path class="cls-1" d="M173.84,96.5c5.82-3.68,8.49-1.72,11.53.09C179.87,99.45,179.79,99.45,173.84,96.5Z"/><path class="cls-1" d="M1456.67,67.22l12.22,0C1464.9,70.8,1462.07,71,1456.67,67.22Z"/><path class="cls-1" d="M566.36,372.79l11.81.63-1.34,2.46-11.74-.79Z"/><path class="cls-1" d="M674.22,377.48c-3.57,2.44-12.31,1.72-17.21-1.43Z"/><path class="cls-1" d="M1100.63,435.83c4.65.59,11.18-2.13,15.24,2-6.7.49-12,1.11-15.23-2.07Z"/><path class="cls-1" d="M1601.78,156.56,1591.73,155c5.88-3.77,8.82-2.5,11.12-.14Z"/><path class="cls-1" d="M1298.07,79.67l-15.56-1.41.62-1.1,16.22.05Z"/><path class="cls-1" d="M1251.09,77.82c-3.85-.35-9.08,1.64-11.34-1.39l.9-1.57,11.52,1.06Z"/><path class="cls-1" d="M1069.19,360.41c1.85-1,4.3-3.08,5.42-2.9,2,.31,3.21,1.95,3.85,3.81l-9,.52Z"/><path class="cls-1" d="M1321.22,78.52c-5,2.7-13.76,2.09-15.13-1Z"/><path class="cls-1" d="M1418.63,346.14c3.1.22,6.28.29,9.21.79.51.09-.1,2-.26,3.86l-9.43-3.32Z"/><path class="cls-1" d="M71.3,460l12,2.53-1.25,1.89-12-2.52Z"/><path class="cls-1" d="M542.27,378.69c4.23-1.69,7.71-.59,11.75-.95C552.68,379.92,552.68,379.92,542.27,378.69Z"/><path class="cls-1" d="M569.08,383.32c4-.22,7.27-.44,10.46-.49.32,0,.49,1,.25,1.51a3.6,3.6,0,0,1-1.68,1.41C573.6,387.28,571,386.14,569.08,383.32Z"/><path class="cls-1" d="M1383.78,252.95c-7.47,3.17-11,2.51-10.83-1.72Z"/><path class="cls-1" d="M404.46,400.72l9.75,0-1.54,3.52-8.94-2.42Z"/><path class="cls-1" d="M712.77,422.25c-2.83,1.44-5.66,3.19-5.87,3-1.25-1.43-6.95.53-4.09-4.12Z"/><path class="cls-1" d="M863.45,357.7c-5.39,3.75-7,1.14-9.64-1.28,5.18-1.83,7.63-.51,9.73,1.41Z"/><path class="cls-1" d="M1588.06,193.3l9.71,2.29-1.69,2.35-9.31-2.85Z"/><path class="cls-1" d="M1553.65,91.27l-12.77-.92,1-1.8,12.77.93Z"/><path class="cls-1" d="M786,347.27l-9.89,0C781.22,343,785.14,342.77,786,347.27Z"/><path class="cls-1" d="M961.24,431.92,973.14,434l-1.22,1.73L960,433.71Z"/><path class="cls-1" d="M1176,441l-5.38-2.57c.93-.9,2.6-2.6,2.67-2.57a52.79,52.79,0,0,1,4.79,3Z"/><path class="cls-1" d="M1392.66,405.6l8,0c-1.91,1.63-3.28,3.36-4.18,3.47C1394,409.39,1390.67,410,1392.66,405.6Z"/><path class="cls-1" d="M579.74,434.47c3-.23,6-.59,8.91-.61.8,0,1.17,1,1.74,1.53-.94.42-2.07,1.22-2.79,1.18-3-.15-5.79-.55-8.67-.86Z"/><path class="cls-1" d="M1206.84,350.08l-13.68,0,.42-.83,13.67,0Z"/><path class="cls-1" d="M1049.37,356.3l-11.5-1.14,1-1.92,11.42,1.19Z"/><path class="cls-1" d="M73.78,399.59c-2.93.87-5.87,1.82-8.78,2.54-.52.13-.95-.66-1.42-1,.64-.57,1.35-1.53,1.92-1.65,2.83-.58,5.62-.95,8.43-1.39Z"/><path class="cls-1" d="M837.54,347.08l10.81,0C841.38,350.57,838.54,350.45,837.54,347.08Z"/><path class="cls-1" d="M876.36,387.49l1-2.24c7.79.07,7.79.07,8,2.27Z"/><path class="cls-1" d="M982,374.17c3.34-.88,6.69-1.82,10-2.55.49-.11.83.81,1.24,1.25-1,.77-2.22,2.13-3,2.19-3,.25-5.88.09-8.8.08Z"/><path class="cls-1" d="M408.26,66.07l-10.64,0,.54-1.35C401.89,63.06,404.87,63.35,408.26,66.07Z"/><path class="cls-1" d="M1409.29,342.84c2.52,1.17,6.92,1.06,3.12,7.08l-4.62-5.94Z"/></svg>