<svg id="Layer_1" data-name="Layer 1" xmlns="http://www.w3.org/2000/svg" preserveAspectRatio="none" viewBox="0 0 1441.4 527.26">
   <defs><style>.cls-1{fill:#d8d8d8;}</style>
</defs><title>brush_block</title>
<path class="cls-1" d="M796.14,138.2c9.34.47,18.68,1.13,28,1.34,5.31.12,10.64-.63,16-.64,1.55,0,3.09,1.25,4.67,1.86a2.93,2.93,0,0,0,1.48.15c4-.67,8-1.5,12-2,1-.13,2,.79,3.12,1.06a8.86,8.86,0,0,0,3.71.57c3-.63,5.9-1.63,8.8-2.47l.95,3.66,3.11-3.85c9.48,6.43,19.75.35,29.86.85a26.09,26.09,0,0,1,3.06.53c1.11.19,2.56.91,3.28.46,7.17-4.41,14.12,1.39,21.35.28,7.8-1.2,15.83-.8,23.76-1.25,1.4-.08,2.77-.88,4.15-1.35l-.25-1.3-54.78-2.19-.3-1.48c3.89-.87,7.79-2.56,11.67-2.48,18.36.36,36.72,1.17,55.07,1.89,4.94.19,9.86.88,14.8.92,14.59.13,29.18,0,43.54,0l-1.95-2.51c5.83-1.52,8.76,2.17,13.23,5.43l-8.25,1.83.21,1.32c11.6-.68,23.32,1,34.85-1.06l-.05-1.39c-1.69,0-3.79.62-4.95-.17s-1.6-3-3.12-6.24c4.2,1,7.35,1.82,10.53,2.52a9.34,9.34,0,0,0,2.94.13c3.4-.36,6.79-.81,10.71-1.3a5,5,0,0,1-6.66,4.07c-4.43-1.8-5.54,1.66-8.9,3.83,5.91.81,11.1,4.29,14.29-2.82a6.69,6.69,0,0,1,2.44.39c-.35,5.21,3,2.27,5.18,1.76l-3-.77.45-7a33.91,33.91,0,0,0,5.18,1.84c.76.13,1.68-.59,2.51-1,.54-.24,1.08-.84,1.56-.78,5,.58,10,1.35,15,1.87,1.26.13,2.59-.7,3.88-.66a8,8,0,0,1,3.9,1,5.23,5.23,0,0,0,6.8-1.29c.64-.75,2.26-.92,3.44-.93,8.57-.07,17.14,0,25.71,0l.14,2.62-10.9.57-.25,1c3,.94,6,1.69,8.82,2.88,2,.83,5,1,4.32,4.54v0l-6.58-1.16.25,5.53,7.25-2.72c-3.42,5.29-17.1,7.36-25.33,4.23l6.25-.68.13-.55c-3.31-.74-6.69-1.25-9.91-2.28a73.21,73.21,0,0,1-8.07-3.69l5.72-4.07c3.17,3.31,3.17,3.31,18.56,2.7-11.85-5.68-16-6.09-28.65-3-3.16.78-6.35,1.82-9.55,1.94-2.76.1-5.57-.94-8.5-.81,2.68,3.28,6.48,1.64,9.78,1.91,3.61.29,7.26.07,11,.86-7.32,4.92-16.28,3-23.48,5.11,13.47,12.61,29.92,13.18,48,9.21l-1.58,3.76c.73,0,2.14.24,2.24,0,1.65-4.25,5.27-2.67,8.2-2.8q14.12-.63,28.26-1c1.58,0,3.17.64,4.76.92,3.37.6,6.31,2.88,10.28.31,2.35-1.53,6.3-.73,7.71,3.26l2.11-3.74,3.27,3.06a1.79,1.79,0,0,1,.41-.86c2.39-2.11,12.07-1.18,14.61,1.37l.15-.16-11.3,2.75c9,7.43,20.11,10.83,32.87,10.18,8.4-.43,16.88,1,25.29.7,5.82-.18,11.58-2.06,17.41-2.64,2.92-.29,6,.61,9.17.09l-12.3-4.55,2.3-2.44a5.84,5.84,0,0,0-1.38-.29c-5.59.31-11.18.6-16.76,1-3.31.24-6.64,1.12-9.89.85-2.87-.23-5.63-1.65-9.06-2.75l-.86,2c-4.21-2.42-8.59-4.91-11.58.83l-9.55-4.3v-3.85c3.93.34,7.66.49,11.34,1,7.75,1.08,15.5-2.31,23.5,1.24,3.69,1.64,9.06-.78,13.68-.92,7.18-.22,14.38-.07,21.56,0a2.24,2.24,0,0,1,1.41.36c2.6,2.43,2.58,2.45,4.31,1.46l7.52,3.28c-3.35,4.57-7.69,4.69-12.54,3-.46-.16-1.25.61-1.89.95.35.62.55,1.54,1.08,1.82,2.19,1.16,4.5,2.09,6.73,3.17,1.07.52,2.06,1.2,3.09,1.81l-.23,1.48h-31.31l3,2.66-4,6.06c4,5.06,9.84,4.06,15.58,3.77-2.15-1.28-5-2.09-6.14-4-.78-1.27.81-4,2.3-5.71l1,5.73,3.64-4.24c7.16.67,15.66,1.34,24.13,2.28,7.8.87,15.58,2,23.36,3.07,1.43.2,2.79.83,4.21,1.14.84.18,2.15.52,2.53.11,4.12-4.46,9.47-3.6,14.4-2.94,12,1.59,23.88,3.7,35.8,5.7,3,.5,5.86,1.42,8.79,2.15l-.29,2.08-38.5-3.88-.22.8,11.33,4-.68,1.85-10.17-3.48-17.54-6.11,1,2-37.4-2.1c-.17-2.15-3.87-2.5-7.5-.19l-8.81-2.93,1.42,4.85c11.75,1.64,23.2,3.65,34.74,4.68,5.55.5,11.53,4.82,17-.67.59-.59,2.25-.15,3.41-.11,4.56.16,9.12.35,13.69.53l1.39,4.93-22.13,1.3-.13,2,44.42,3.81-1.37,8.57c5,.66,9.75,4.07,14.76,7.05l-.79,2.11-19.53-3.49,2.14,8-28.48-6.74-2.09,3.76c-10-6-21.05-5-32-4.91,3.9,1.24,7.75,2.66,11.7,3.69,6.35,1.65,12.72,3.23,19.15,4.51,10.39,2.08,21,3.25,31.16,6.12,4.29,1.22,9.87,3.19,11.33,9.33-10.09-1.87-19.94-3.79-29.82-5.49a99.86,99.86,0,0,0-11.28-1.12c-6.67-.38-6.68-.31-11.44,6.73-16.39-5.72-33.48-4.48-49-5.86,14.22,3.24,29.59,6.83,45,10.19,3.33.73,7,1.48,10.24.76,10.33-2.32,19.75.51,29,4.27,7.07,2.88,13.9,6.36,20.72,9.81a14.67,14.67,0,0,1,5,4.78,65.53,65.53,0,0,0-7.57-2.68c-1.49-.34-3.18.26-4.78.35a55.39,55.39,0,0,0-10.26,1.22l23,7c-.09,2.17.06,4-3.52,2.64a93.2,93.2,0,0,0-16.76-4.61l8.38,3.9-7.92,2.33c1.34,1,2,1.89,2.78,2.09,5,1.27,10.19,2.21,15.2,3.62,6,1.7,11.32,6.33,18.27,4.57.49-.12,1.31,1.09,2,1.68l-.54,1.24-16.59-1.24,2.54,5.3-20.95-6.32,1.42,6.43a37.91,37.91,0,0,1-3.11-2.7c-2.74-3.05-5.59-5.63-10.14-3.56a2.79,2.79,0,0,1-1.49,0c-6.42-1-12.54-2-16.63,5.32-1.14,2-4.59,1.66-7.37-.2-6.59-4.41-13.79-7.54-22-7.08a7.1,7.1,0,0,0-4.66,2l21.18,3.47-.1.82-66-2.36c9.51,2.71,20.37,7.1,31.63,8.65,11.41,1.57,23.2.35,34.82.35l-.6,1.91c1,1.14,1.84,2.65,3.1,3.35,5.2,2.89,10.3,6,16.63,6.13,1.7,0,3.36,2,5,3l-.77,1.38c-8.3-1.92-16.55-4.11-24.91-5.7a222.63,222.63,0,0,0-25.7-3.25c10.85,8.38,24.39,6.39,36.42,10.11,1,.31,2.26-.2,3.4-.35,1.29-.17,2.92-.95,3.81-.43,10.64,6.11,23.11,4.18,34.23,8,8.34,2.84,16.53,6.11,24.79,9.19l-.53,2-33.73-3.82-.54,1.51,5.05,3.47-.33,1.05-19.52-5,3,3.41h-8.07v.39l7.07,1.78-.33,1.52c-4.39-1.13-9.51,8.18-13.71-1.84l-9.64,1.54c17.2,6,34.06,9.36,48.7,18.24l-.63,1.62c-2.1-.88-4.17-1.87-6.32-2.61-3.9-1.35-7.35-5.44-12.19-1.93-.5.36-2.42-1.3-3.72-1.94a10.48,10.48,0,0,0-5-1.35c6.33,7.91,16.53,6.56,24.72,10l-.27,1.55c-4.16-.46-8.33-.83-12.48-1.39-6-.8-11.94-1.85-17.94-2.52-1.24-.14-2.61.89-5.11,1.83-12.36-6.91-27.29-7.07-42.15-7.71l-.31,2.11c2,.23,4,.31,5.89.73,5.24,1.13,10.57,2,15.64,3.71,11.88,4,23.55,8.57,35.45,12.46,6.31,2.06,12.94,3.14,19.4,4.77a11,11,0,0,1,2.8,1.74,14.57,14.57,0,0,1-3.77,1.13c-1.19,0-2.39-.63-4.83-1.35l3.25,5.15-.53.88-10.24-5.69,3.23,6.55-1,1a66.17,66.17,0,0,1-6.3-5.17c-4.46-4.64-10.53-4.85-16.16-6.17a73.1,73.1,0,0,0-12.57-1.87c-2-.12-4.17,1.05-6.64,1.75l-.1-2.35-30.46-7,1.76,4.23-.66.28-4.95-5.75h14.72l0-1-24.71-1.44,6.05,2.64-.29,1.84c-2.89-.29-5.8-.46-8.66-.91-4.66-.73-9.27-2.24-13.94-2.39-13-.42-25.95-.4-38.92-.33-2.06,0-4.12,1.12-5.48,1.52l39.71,5.1-.08-.42,30.53,4.13,0,1.85c-3.12,0-6.25.12-9.37,0-3.44-.17-6.86-.79-10.3-.9-13.43-.41-26.87-.56-40.3-1.08-11.71-.46-23.4-1.35-35.11-1.88-1.55-.07-4.59-1.64-4.2,2.46,0,.35-2.54,1.35-3.92,1.37-8.11.13-16.22.07-24.33.07l-.24-1.83c2.93-.38,5.85-.92,8.79-1.08,3.31-.19,6.65,0,10.08-.84-4.14-.73-8.26-1.77-12.43-2.12-14.12-1.17-28.24-2.39-42.39-3-7.91-.33-15.89,1.09-23.79.76-13.81-.57-27.59-2-41.4-2.82-5.7-.34-11.43-.19-17.14,0-2.23.08-4.43.87-6.64,1.34-1,.2-2.15.86-2.82.52-5.24-2.71-10.18,1.85-15.41.6l2.08,1.2-.38.88a70.33,70.33,0,0,1-7.13-2.78c-3-1.52-5.12-1.38-6.55,3.08l-2.57-4.48c-1,2.56-8.72,4.07-10.17,1.56-2.11-3.63-2.57-2.19-3.61.5-.28.73-1.88,1.17-2.93,1.29-.45,0-1-1.08-1.54-1.68l2.25-1.87h-5.59l1.93,2.33-.27,1.57L981,365.7l-.2-1.55c6-1.8,12.35-1.11,18.52-1.71H977.17l1.43,2.32c-1.9.34-3.86,1.17-5.7.95-9.19-1.12-18.21-1.83-27.39.84-4,1.17-8.69-.11-13,.34-4.89.51-9.55,0-14.36-.46-4.09-.36-10-2.17-14.3,2.78-1.41,1.62-6,.46-9.15.6-.63,0-1.27.15-3.12.38,7.24.6,13.22,1.27,19.22,1.57,9.76.48,19.53.72,29.3,1,1,0,2.61.2,2.87-.28,4.29-7.81,8.59.11,12.85.1l-7.08.41,0,.32c6.87.49,13.73,1.11,20.6,1.43,10.09.46,20.2.75,30.3,1,2.56.06,5.65,2.29,7.54-1.61.2-.41,2.81-.41,3.12.11,2.23,3.7,5.73,2.31,8.81,2.52,5.26.37,10.54,1.09,15.79.91,8.88-.3,17.73-1.26,26.61-1.77,4.15-.24,8.33-.23,12.49-.07,9.39.37,18.78.91,28.83,1.42l-1.17-3.47c16.73,0,33.39-.13,50,0,13.44.13,26.87.61,40.3,1,12.77.33,25.64-.22,38.27,1.29,13.37,1.6,26.51,5.18,39.75,7.84,1,.2,2.42.48,3,0,4.67-3.84,8.75-1.27,13.13.68a73,73,0,0,0,16.7,5.31l3.17,6c-2,0-4,.61-5-.1-4.91-3.39-9.34-1.6-13.84.7-1.18-4.51-4.84-4.56-8.44-4.73h-5.23l-2.91,5,32.89,4c-4.11.85-7,2-9.82,1.93-12.37-.41-24.72-1.43-37.09-1.71-5.34-.12-10.7,1-16.7,1.66l.34-3.64H1213.9l-.46-3.86h-4.53l-.07.8,2.5.22.56,1c-1.63.87-3.83,2.89-4.81,2.42-6.08-3-11.29,1.26-16.91,1.66-13,.93-25.71,5.66-39,4.52-11.61-1-22.3,2.87-33.31,5.33a135.81,135.81,0,0,1-18.94,2.65c-9.07.72-18.17.93-27.37,2.18,8,1,16,2.62,24,2.77q31.49.59,63,0c15.21-.24,30.41-1.23,45.61-2,1.78-.09,3.54-.92,5.3-.89,2.95,0,6.55-1.44,8.19,2.79.1.26,1.45,0,2.54,0l-2.14-2.3c.45-.26.75-.59.92-.53,11.41,3.95,23.88-3.37,35.16,2l-.15,1.9-8.12-.51,0,1,14.32,1.53c3.09.33,6.17.84,9.27.9,1.21,0,2.41-1.08,3.68-1.4a3.83,3.83,0,0,1,2.4.33,35,35,0,0,1,3.47,2.17c1.57,1,3,2.46,4.74,2.91,3.59,1,7.32,1.38,11.33,2.08,1.38-1.15,1.06-6.39,5.48-2.61l-2.84,1.3.09.82H1306l-2-2.39a85.23,85.23,0,0,1,10.17-1c1.59,0,3.15,1.4,5.37,2.47L1307.12,429l.14,1.35,14.27,1.52.1,1.26c-3.59.56-7.24,1.83-10.77,1.53-10.6-.89-21.15-2.43-31.73-3.63-5.22-.59-10.46-1-15.55-1.45-2.56,6-7.44,7.72-13,4.65l2.27-4.38c-7.19-3.4-14.55.34-22.34-.52l10.33-4.3c-12.24,1.61-17.8.93-22.86-2.86l24.58-1.15-.06-1.49-26.56,1.18c1.44,8.35-3.85,4.15-7,4.08-14.76-.32-29.53-.62-44.29-1.06a6.43,6.43,0,0,1-4-2.19c-2.74-.08-6.34-2.15-8.77.86-2.05-.46-4.6-1.61-7.09-1.51-10,.4-20,1.52-30.07,1.69-5.68.09-11.37-1.22-17.07-1.74a5.84,5.84,0,0,0-4.5,1.62l7,.74c-3.08,4.22-6.65,2-9.75,1.82-1-.07-1.87-1.21-2.81-1.86l.53-1.61-7.52,1.47,2.29,1.13-.1,1.19c-2.23-.19-4.78.26-6.64-.67-7.59-3.82-15-4.21-22.66-.31a7.73,7.73,0,0,1-2.9.42c-1,.07-2,0-3,0-23.77.33-47.53.72-71.3.95-4.1,0-8.2-.89-12.3-.83-3.16,0-6.3,1.06-9.48,1.43-2.41.28-5.45,2-7.4-2.66l5.47,1,.34-.91-6-1.69-.47,3.36h-7l-6.91-2.65,3.58,4.46c-10.57.52-20.54,1.2-30.53,1.45s-19.79.05-29.2.05l-2.78-3.54-1,.79,2.35,4.37H861l-.29-1.27,10.12-2h-33.3l.06,1.92a52.43,52.43,0,0,1,7.51-.92,47.78,47.78,0,0,1,7.22,1.14l-.2,1.55H830.78c-5.67,0-11.34.18-17,0-11.55-.44-23.07-.48-34.64-.27-21.85.39-43.73-1.25-65.6-1.57-7.29-.11-14.6,1.23-21.84,2.88,11.47,0,22.95-.12,34.42,0,17.27.23,34.53.59,51.8,1,9.1.21,18.21,1.06,27.3.87,12.38-.26,24.73-1.37,37.11-1.81,4.25-.15,8.53.83,12.8.88,13,.13,26-.08,39.06.09,11.27.15,22.63-.19,33.78,1.14,21.77,2.6,43.67,1.57,65.4,3.14,43.55,3.17,87.09.84,130.62,1.55,12,.19,24.08-1.87,36.1-1.71,18.53.24,37,1.5,55.78,2.75-2.9.7-5.83,2.11-8.68,2-14-.72-27.93-2.15-41.91-2.71-6.53-.26-13.12.87-19.68,1.39-.81.06-1.61.41-2.42.42-34.6.35-69.19.88-103.79.95-21.93,0-43.87-.87-65.8-.81-11.73,0-23.45,1.24-35.17,1.86a37.51,37.51,0,0,1-4.58-.3v-1.69l19.7-1.25.07-.67c-3.9-.35-7.8-1-11.7-1q-57.55-1.09-115.1-2c-8.7-.14-17.41.06-26.11,0-27.77-.29-55.53-.56-83.3-1-16.24-.27-32.57-2.21-48.67-1-11.66.91-22.55-2.77-34-2.18-9.89.51-19.89-1.15-29.78-.66-13.43.66-26.81,2.45-40.21,3.75-.66.06-1.33.07-2,.08-13.6.34-27.22.29-40.79,1.11-13.93.84-27.79,2.72-41.7,3.77-6.46.49-13,0-19.49.14-12.77.26-25.56.24-38.29,1.09-13.08.88-26.1,2.66-39.15,4.07-.22,0-.39.46-.59.71q0,.61,0,1.22c-5.47.63-10.94,1.47-16.43,1.84-8.09.53-16.2.69-24.3,1.07-13.87.64-27.73,1.74-41.6,1.84-9.86.07-19.72-1.36-29.6-1.78-4.53-.2-9.1.41-13.65.65l-.27,1.63,8.36,2.76L265,456l-18.87-1.12-.12,1.19a45.07,45.07,0,0,0,5.37.71c24.1.38,48.28-.49,72.27,1.32,32.8,2.47,65.59,3.1,98.41,2.53,14.24-.25,28.43-2.62,42.67-3.63,3.29-.23,6.7,1.64,10.05,1.65,2.33,0,5.63,2.1,7.22-1.75.08-.18,1-.11,1.44,0,4,.63,8,1.78,12,1.86,12.49.25,25,0,37.49.13,7.1.09,14.21,1,21.3.84,6.37-.14,12.72-1.26,19.09-1.85a16.24,16.24,0,0,1,3.36.24c-1.81,2.12-3.59,4.28-5.5,6.33a2.48,2.48,0,0,1-1.75.19,35.29,35.29,0,0,1-.71-3.93c-1.68,4.6-5.33,4.13-9,4.17q-40.64.41-81.29,1c-15.6.23-31.2.71-46.8,1-8.37.13-16.74,0-25.1,0-9.85.09-19.76-.7-29.39,2.57-1.42.48-3.48-1.43-5.28-1.52-8.92-.41-17.85-.67-26.78-.72-1.05,0-2.11,1.59-2.26,1.71-3.33-1.16-6-2.78-8.75-2.93-10.92-.62-21.88-1.33-32.79-1a359.77,359.77,0,0,0-41.66,4H271.4l.08,1.45c-8.11.5-16.26.57-24.3,1.61-8.36,1.08-16.6,3.09-25.49,4.81.33-6.71,7.05-3.46,8.79-6.35-33.87-4.11-67.79-.28-101.18,2l11.28,1.5-.13,2c-10-.56-20.14,1.28-31.09-1.68l3.09-2.51H102l-.46-1.5,9.26-3.84c-3.11-.87-5.61-2.91-8.85.17-1.67,1.59-6.13.71-9.22.25-7.25-1.09-14.44-2.58-21.64-4-.73-.14-1.82-.68-2-1.25-1.75-6.57-8.07-7-12.74-9.64-3.06-1.71-6.23-3.22-9.35-4.82l.73-1.89,25,8.89-4-6.53.58-.91L77,450.82l.43-.6c-.73-.8-1.84-1.51-2.08-2.44a6.55,6.55,0,0,1,.19-4.05c.21-.47,2.17-.14,3.34-.21.77,0,1.54-.16,2.31-.24l-.32-1.85-9.34,1.73.38,1.22L48.51,434.15c1,3.33,5,5.88.23,7.18-2.9-1.5-5-2.47-6.93-3.6-3-1.73-6.69-2.66-7-7.42-.06-1-3.75-1.75-5.7-2.75a36.48,36.48,0,0,1-3.39-2.2,11.32,11.32,0,0,0,2.79-2.06A10,10,0,0,0,30.61,419c.66-5.67,1-11.37,1.47-17.06l1.8-.27,1.2,9.52,4.42-.74c-3.26-7.87-7-15.37-9.47-23.24-3-9.25-3.72-18.74-.75-28.43,1-3.11-.43-6.94-.23-10.69,3.11,4.73,4,11.34,11.14,12.38l-2.62-.5,2.23,7.68,3.24-.58c2.36,11.36,11.48,7.14,19.51,7.5l-3.67,2c7.82,1.12,15,2.53,22.21,3,2.9.19,6.6.8,9-2.82.51-.77,4,.41,6.33.72l.37-3.25,20.69,3.47.35-2.08-32.52-5.72.36,6.93c-2.93-.65-6.95,1.79-6.2-4.11.1-.81-2.24-2.54-3.64-2.79a40.93,40.93,0,0,0-8-.13c-2.86.06-5.31,0-7.41-2.82-.92-1.25-4.16-1.29-6.26-1.05-2.69.31-5.29,1.45-7.87,2.21-.15-3-.13-2.92,6.39-5.43,3.15-1.21,6.19-2.71,9.14-4-5.56-.3-11.12-.32-16.61-1s-6-2.58-2.35-8.27l1.17,3.7c5.67.56,11.07,1.13,16.48,1.62,3.14.28,6,0,5.26-4.38l-15.6-4.8,5.15-3.42-.27-1.27-17.88,4.71-.78-1.48a52.9,52.9,0,0,1,6-3.31,77.78,77.78,0,0,1,7.55-2.26L43,330c-9.32,3.27-18.49,10.15-28.51,2.55L14,325.08c4.26.57,8.59,1.78,12.85,1.56,4.64-.24,9.21-1.75,13.79-2.83.5-.12.71-1.22,1.25-1.49a4.92,4.92,0,0,1,2.3-.32c.32,0,.62.74.93.73,12.58-.1,25.28.88,38.66-4.12-11.62-2.53-22-2.6-32.81,0l2.43-5c-.95-.31-2-1-2.7-.83-9.47,2.78-17.55-2.89-26.28-4.43-.87-.15-1.56-3.63-1.62-5.59-.21-6,2.9-11.88,7.6-13.14,3.75-1,7.84-1,11.78-1,3.69,0,4.23-2.54,4.82-5.16a44.64,44.64,0,0,0,.47-4.55l4.22,4.72c1.06-2.07,2.12-4,3.07-6.06s1.82-4.14,2.92-6.69l-13.88-8.14-3.14-4.15-.84-3.64c6.12-.79,14.37,1.74,14.43-9.13-1.91.59-3.93,1.34-6,1.84-2.23.54-5.42,2-6.61,1-3.7-2.93-8.76-6.44-9.43-10.39-1.22-7.12-2.27-15.12,2.94-21.79,1.57,7.53,13.26,14.49,24,14-2.38-2.46-4.17-4.1-2.88-8.48s5.29-3.81,7.18-7.07l-5.43-.48V211l21.64-6.31c-4-2.89-7.23-2.72-23.33,1.1-7.6,1.8-15.16,3.77-23.25,5.8l-1.86,6.69c-1.11-5.2-4.16-5.17-7.91-4.62-1.95.28-4.1-.87-7-1.59,5.38-1.5,10-4.39,13.54-3.45,7.21,1.9,12.18-2.75,18.18-4.07,1.82-.4,3.15-3.34,4.93-3.61,10.67-1.62,21.44-2.62,32.12-4.2a89.23,89.23,0,0,0,18.77-4.9L73.33,194l1.84-4c-9.77-.1-19.07-5.79-29.09-.29l-.17-1.86L62.46,181c-3.66-2.7-3.7-2.78-9.92.48-3.14,1.64-6.09,3.65-9.1,5.48-3.77-5.19-2-4.75,10.24-10.73L47,173.31l-4,4.76-1.89-1.74-9.57,1.89-.92-1.5c2.57-2.26,4.83-5.17,7.8-6.63,3.48-1.7,5.49-3.78,6-7.56.4-3,1.7-4.33,5.22-5.07,4.58-1,8.73-4,13.24-6.18C60.15,148,60.15,148,47,147.72c-2-2.36-3.25-5.13-4.83-5.34-2.11-.28-4.48,1.43-8.19,2.83l3-4.86-8.24-3.93.21-.85,8,.64c2.08-2.22-2.09-8.09,4.86-8.3l-2.43,4.22c9.57,2.8,14.69-5.51,21.91-7.83l-4-8c1.13-.24,1.62-.45,1.71-.34,6.21,7.76,6.07,7.17,15.52,4.94q22.34-5.26,45-9c15.18-2.5,30.5-4.13,45.77-6.07,16.25-2.06,32.6-3.49,48.74-6.22a209.71,209.71,0,0,1,41.91-2.74c5.55.18,11.06,1.63,16.61,1.73a167.92,167.92,0,0,0,20.28-1c10.09-1,20.15-2.4,30.19-3.89a44.38,44.38,0,0,1,21.1,2.06,23.32,23.32,0,0,1,3.1,1.38c.17.09.15.57.31,1.33L311.68,96.8l-.22,2.57c7.64,1.15,15.33,3.41,22.92,3.15,8.86-.3,17.63-2.81,26.45-4.31,1.46-.25,3-.26,4.43-.4,14.23-1.31,28.47-2.67,42.7-3.93,8.49-.76,17-1.27,25.48-2.09,12.41-1.2,24.8-2.61,37.21-3.88,4.26-.44,8.53-1,12.8-1,10.83-.15,21.67.08,32.5-.08,13.94-.2,27.87-.71,41.81-.94a257.18,257.18,0,0,1,27.53.82c-1.2.71-2.34,1.92-3.6,2-5.41.54-10.86.89-16.29,1.07-12.93.42-25.87.67-38.8,1-10.6.3-21.23.33-31.8,1.09-8.63.62-17.2,2.2-25.81,3.21a99.89,99.89,0,0,1-10.86.65c-10.83.08-21.67-.05-32.5.07-4.3,0-8.28.42-12.09,3.65-2.15,1.83-6.59,1.08-10,1.28-7,.42-14,.2-20.86,1.14a344.51,344.51,0,0,0-38.92,7.54c9.72-.59,19.44-1.08,29.14-1.79,6.05-.45,12.07-1.44,18.12-1.81,13.36-.81,26.73-1.42,40.11-2q22.8-1.06,45.61-2c24-1,48-1.89,72.67-2.85.53-1.75.77-5.91,5-1.63.66.67,3-.53,4.59-.5,13.1.27,26.2.63,39.3,1,12.77.33,25.56,1.26,38.3.8,10.1-.36,20.13-2.48,30.2-3.7a62.58,62.58,0,0,1,7,0l-1,3.77c.32,0,.9.15.93.06,1.67-4.46,5.31-3.89,8.86-3.47,7.14.84,14.28,2.37,21.43,2.4,7.51,0,15-1.65,22.56-2,2.69-.13,5.41,1.7,8.2,2.15,1.89.31,3.92-.23,5.89-.38l.07-1.67c2.32.71,4.92,1,6.91,2.23,4.41,2.76,8.36,2.48,12.65-.18,1-.6,2.91-.06,4.22.44,2.55,1,5,2.33,7.44,3.52l.73-1.37-5.12-1.67.16-.88h15.78c17.33,0,34.67.09,52,0,7-.06,14-1.23,20.95-.77,7.16.48,14.64-.77,21.46,2.7a5,5,0,0,0,2,.11c13.27.34,26.54.57,39.8,1,16.21.56,32.41,1.29,48.61,2q22.31,1,44.61,2c7.1.32,14.2.75,21.31.91,1.14,0,2.3-1.05,2.77-1.28,2.71.79,5.44,2.26,8.16,2.24,10.94,0,21.87-.71,32.81-.81,5.6-.05,11.21,1,16.8.83,10.55-.31,21.08-1.45,31.63-1.66,12.3-.25,24.48-2.26,37,.23,7.55,1.51,15.77-.19,23.67-.72,3.73-.25,7.4-1.54,11.13-1.68,13.26-.51,26.53-.89,39.8-1,4.91,0,9.83.83,14.85,1.29l.25-4.59,4.24,4.93,14.86,1.75,0,1.27-6.8.46,3.25,2.35-6,.74,0,.42,35.33,3.7-.33-5.89,7.66,2.49,8.65-.95.24,1.3-6.56,2.09.24,1c4.47.51,9.1,2,13.37,1.28,5.74-.94,9.87,2.39,13.78,4.62,4.59,2.62,8.88,2.48,13.49,2.61a20.85,20.85,0,0,1,6.22.73,9.92,9.92,0,0,1-2.91,1.21c-8.22.54-16.49,1-24.67,1.54-13.85.91-27.9-1.53-41.88-2.39a93.11,93.11,0,0,0-14.46.41c2.93.5,5.85,1,8.78,1.49,2.28.38,5.43-.39,5.3,3.93l8.57,1.36.12-.52-7.18-3,.54-1.71c6.28.9,12.58,1.72,18.85,2.71s12.64,2.4,19,3.15c2.12.25,5.53,1.79,6.4-2.46a42.61,42.61,0,0,1,5,.44l-3.54-2.74,1-1.32c2.6,2,5.15,4.17,7.83,6.11a12.09,12.09,0,0,0,4.05,2.05c7,1.71,14.07,3.25,20.92,5.81-17.68.85-34.26-6.31-51.93-6-17.47.31-35-1.23-52.45-2l.07-1.66h18.06l0-.81-21.13-1.52.82,2.95h-6.1l-.27-.79,2.94-1.42.07-.28-73.14-6.25,2.11,6-9.67-1.21v-4l-1.36,2.72c-9.56-4.45-19.78-1.55-29.8-2.05l2.75,1.2,0,.88-3.35.48c-3.54.5-7.07,1.11-10.62,1.46-1.35.13-3.11.13-4.08-.61-4-3-8.43-1.78-12.81-1.93-14.86-.48-29.72-1.3-44.58-1.88-2.12-.08-4.26.4-7.84.77-5.32-3.83-17-4.51-21.24-.8-4.64-1-8.79-2.51-13-2.68-8.78-.34-17.58,0-26.38.12-1.26,0-3,.68-3.72.09-6.71-5.12-14.17-1.33-21.25-1.83l14,.81-.05,1.48c-4.23,0-9.21,1.44-12.54-.29-7.91-4.12-16.31-3-24.46-4.09-1.36-.19-2.92,1-4.57,1.67l2.33,1.34c-3.61,3.2-5.39-.17-8.82-2.05l6.78-1c-6.16-.56-11.49-1.3-16.85-1.49-13.6-.48-27.2-.76-40.8-1-1.75,0-3.51.87-5.28.9-12.71.2-25.43.69-38.11-.89-.82-.1-1.66,0-2.5-.07-11.15-.45-22.3-.88-33.45-1.37-11.43-.51-22.85-1.28-34.28-1.51-3.86-.08-7.73,1.45-11.63,1.7-2.9.19-5.85-.6-8.79-.78-6.43-.4-12.87-.79-19.3-1-11.6-.4-23.2-1-34.8-.91-6.64,0-13.27,1.15-19.91,1.78l.05,1.73H789.46v2.49H710.35q0,1.07,0,2.13H762.2c-.72,4.32-4,2.56-6.18,2.67-2,.09-4-.57-6.08-.9l-.06,1.63h13l3.59-3.57,1.82,4.94c12.64,0,26.23.08,39.82-.11,1.66,0,5.26,2.25,5-2.5,0-.3,1.8-1,2.78-1,4.47-.11,9,0,13.45,0-.66,2.76-2.72,3.94-6.39,3.63-2.52-.21-5-.56-7.55-.85l-.17,1.37,9.47,1.49-.23,2c-4.87,0-9.74,0-14.61,0-3.67,0-4.17,2.89-5.63,5.27-1.19,1.93-3.45,3.24-5.31,4.72a16.75,16.75,0,0,1-2.74,1.48c-1.3-.76-2.82-1.29-3.85-2.31-2.66-2.67-8.88-2.13-12.18,2l8.2-.73,1.11,4.52H778.77v.79l14.45.64-2.62-3.54ZM614.59,378.91l1.71-5.68-25.88,2.66c.34,4.57,3.74,4.39,6.55,3.79s5.51-2.27,8.41-3.54v4.68l4.35-3.49,5,1.44c.49.33,1,1,1.47,1,14.26-.28,28.52-.58,42.77-1,.94,0,1.85-1.27,2.59-1.81-8-1.18-15.52-6.09-23.19-1.28l.84,2Zm501.58-39.53c-5.1-.33-10.19-.73-15.29-1s-10.33-1.06-15.33-.36c-9.13,1.27-18.09,2.4-26.76-1.73-3.91-1.86-7.39-1.41-11.92,1.94,2.61,1.05,4.43,2.3,6.34,2.45,4.15.33,8.35.05,12.53.11,15.32.21,30.63.46,45.5.68l-.64-1.27,5.61-.89-2,3.69c5.16-.31,10.16-.94,15.14-.82,4.56.11,9.1,1.52,13.64,1.5,11.43,0,22.87-1,34.3-.8,14.54.24,29.06,1.3,43.6,1.87,10.12.39,20.25.58,30.37.72.7,0,1.41-1.2,2.45-2.14l5.79,4.45c4.72,0,11.06-.18,17.38.06,4.17.16,8.06.63,12-1.8,2.05-1.26,5.26-.66,3.16,3.53,7.28.9,13.94,4.52,21.53,2.51l-1.82-5.08c-2.88,6.65-6.58.89-9.78,1.59-.25.06-.91-1.72-.89-1.69-5.64-1.46-10.67-2.9-15.77-4-1.68-.36-3.55.21-5.33.32a13.73,13.73,0,0,1-3,.06c-2.41-.39-5.63-2.17-7-1.21-5.28,3.62-9.57-.17-14.25-.9l3-.89-.3-1.1-8.3,2.13.42-2.41c-9.66-.73-19-1.45-28.38-2.14-5.1-.38-10.2-1-15.3-1q-18.55-.17-37.09.16c-2.09,0-4.15,1.33-6.23,2l.34,1.19c1.95-.47,3.88-1,5.85-1.37,1.71-.28,3.46-.28,5.19-.41v1l-2.05,1.29h5.25l-1.35-2,.77-.65,3.56,3.62-.93,1.54c-7.58-.47-15.15-1.11-22.74-1.39-12.76-.47-25.53-.7-38.3-1.05A29.34,29.34,0,0,1,1116.17,339.38Zm14.74-163.76q0-.87,0-1.75h5.85l0-1.25-12.39-1-.28,1.47,6.93,2.35c-.51.56-1.15,1.66-1.52,1.58-4.3-.94-8.57-2.06-12.51-3l.75,1.92-110-1.64-.08,1.33c2.71.4,5.41.83,8.12,1.18q14.61,1.88,29.22,3.71c6.5.8,13,1.8,19.53,2.16,2.63.14,5.34-1.2,8.33-1.95a13.26,13.26,0,0,0,4.07,1c5.11-.14,10.22-1,15.3-.84,11.54.39,23.08,1.18,34.61,1.92,14.64.94,29.26,2.17,43.91,2.94,11.75.61,23.53.92,35.3,1,20.33.16,40.66,0,61,0,1.12,0,2.25-.16,3.37-.24V186l-8.71-.65,0-1,11.1-1.22c-3.55-.28-7,0-10.3-.38-2.37-.29-3.51,1.74-6.21,1.8-10,.23-10.23,1.12-16.7-.84-2.34-.71-4.28-1.75-5.73,1.24-.25.51-1.44.84-2.17.78q-11-.86-22.06-1.94a13.22,13.22,0,0,1-3.2-1.2l.24-1,23.86,1.13c-8.45-1.87-16.82-3.29-25.23-4.49-3.31-.47-7.06-1.48-9.95-.43a15,15,0,0,1-13.4-1.4c-2.07.62-3.45,1.42-4.82,1.39-8.82-.21-17.64-.86-26.46-.85C1144.07,176.89,1137.4,178.13,1130.91,175.62ZM939.58,389.85l-6.79,4.44c9,.53,17.27,1.19,25.53,1.48,13.62.47,27.25,1,40.87,1,31.1-.13,62.19-.62,93.29-.92,8.31-.08,16.61,0,25.88,0-1-2.07-1.63-4.6-2.19-4.57-2.66.12-5.91.17-7.8,1.68-3.75,3-7.27,1.73-11.6,1.36L1104,385c5.86,4.93,18.38,6.7,21.37,2.75l-7.65-1.68.21-1,12.29,1c-2.16,3.57-7.23,4.54-7.46,9.82l11.92-3.22-4.14-2.32c2.87-.73,4.67-1.66,6.39-1.55,12.31.83,24.59,2.15,36.91,2.72,4.63.21,9.89,3.2,13.4-1.55,8.92,6.94,16.14-1.75,24.28-2.1l-1.93,2.82,13.32,4.28,6.94-2.9-6.23-1.9.52-2.29,22.68,3.23c-5.24,6.07-10.89,2.71-15.84,3.05l-.12,1.25,16.26,1.56V392.8c18.17,7.86,18.63,8,23.42,5.94-7.45-5-26.66-11.48-35.19-11.95-4.43-.24-9.39.6-13.16-1.12-6.86-3.12-13.55-1.56-20.33-1.41-4.82.11-9.65.88-14.44.69-3.51-.15-7-2-10.47-2-26.39,0-52.79.29-79.18.51-.32,0-.63.26-1.23.53l3.28,1.83-2-1.41c-1.92,3.09-3.19,7.57-6,8.87-2.42,1.14-6.51-1.3-9.86-2.16l0-1.43,5.25-1.94-.28-1.11-9.24,1.26,2.21,1.29-2.76,4.3c-.91-2.08-1.39-5-2.48-5.28-1.95-.43-4.25.84-6.43,1.26a22.63,22.63,0,0,1-4.86.47c-.47,0-.91-1.07-1.46-1.78l3.89-.65-.09-.54h-8.35l-.77,5.61h-7.11l.78-6.45c-5.56-.42-11.32-.8-17.06-1.35-.89-.09-1.67-1.06-2.57-1.45a10.13,10.13,0,0,0-3.59-1.17c-1.77,0-3.56.71-5.32.63-13.87-.58-27.73-1.4-41.61-1.92q-19.39-.73-38.8-1c-2.41,0-4.83,1.08-7.25,1.66a29.21,29.21,0,0,0-7.36-1.26c-4.12-.3-8.76,3.24-12.29-1.94-.53-.78-2.85-.69-4.24-.44-2.19.38-4.83,2.38-6.36,1.67-4.95-2.28-9.45,1.23-14.18.31-1.19-.23-2.59.63-3.89,1-.82,0-1.65.07-2.47.07-1,0-2,0-3-.07.07-.56-.05-1.38.26-1.61a8.46,8.46,0,0,1,2.62-1.22,7.15,7.15,0,0,1,2,0,3.49,3.49,0,0,0-2.92-2.15c-4.32-.12-8.64-.07-13,0-2.18,0-4.74-.25-2.79,3.38.16.29-1.16,1.75-2,2.15a50.21,50.21,0,0,1-5.54,1.89c3.73,3.88,12.15,3.66,16-.35,5.47,3.54,9.17,2.8,10.68-2.14,2.89-.09,4.69.53,2.37,3.61,17.9,1.69,35.69,1,54.15.1l-1.44,4.25Zm.07-238.05c10.12,0,19.61.11,29.09,0,6.27-.1,12.57-1.17,18.79-.76,13.92.92,27.78,3,41.71,3.67,14.47.66,29,.54,43.48,0,10-.36,19.88-2,29.82-3.05l0-.57-22.57-1.49-.16-1.85,16.12-.66-.23-.94-24.81-2.64,0,.83,6.35,3.19c-4.43,3.54-7,2.66-9.19-2.55H1057.7l8,2.73-.35,1.26c-3.16-.51-7.54.11-9.24-1.74-4.65-5-8.68-.75-12.91-.29-.43,0-.72,1.45-.64,1.29l-81.21-3.47v3.65l-8.47-2.45-.78,1.46c-2.62-.3-4.9-.09-6.77-.86C940,144.34,940,147.71,939.65,151.79Zm-109.18,223H807.68c-10.5,0-21-.28-31.49.11-6.17.23-12.3,1.55-18.45,2.31-1,.12-2.61.17-2.88-.33-1.56-2.88-3.49-1.93-5.9-1.34a34.37,34.37,0,0,1-10.22,1.16c-10.37-.66-20.72-1.22-31.09-2.48-14.2-1.72-28.76-.43-42.69-.43-2.12,5.54,0,6.45,3.73,6,.66-.08,1.33,0,2,0,14.2-.66,28.4-1.65,42.61-1.89,10.92-.19,21.86.57,32.8.9.5,0,1,0,1.5.07,9.8,1,19.58,2.42,29.41,2.79,8.91.33,17.87-.84,26.79-.69,3.3.05,6.56,2,9.84,3.07a26,26,0,0,0,3.19,1.13c6.27,1.19,12.78-3.58,19.29,1.79,1.8,1.49,7.53-1.67,11.73-1,1.24.21,2.69-.82,5.14-1.67l-.54-8.29c-2.72.94-5.78,1.17-7.63,2.79C839.45,383.5,833.79,382.57,830.47,374.8Zm-234.25-240c22.29-1.37,43.67-3.26,65.09-3.84,18.24-.5,36.51.62,54.78.79s36.49,0,55.09,0l-1.23-3.33a60.73,60.73,0,0,1,27.86,2l-.07,1.28,4.37-2.37c-2.69-1.19-4.3-2.49-5.93-2.53-9.16-.2-18.43.76-27.45-.37-7.15-.9-13.67-1.22-20.14,2.16-.79.41-2,.1-3,.11l-71.77,1q-35.64.5-71.27,1-41.38.54-82.77,1a31.71,31.71,0,0,0-4.77.78,26.42,26.42,0,0,0,10.28,2.16c17.42.41,34.85.77,52.27.93,1.94,0,3.86-1.48,5.86-2,1-.27,2.57-.37,3.16.2,4,3.89,8.76,5.27,14.8,4.8ZM895.63,367.43v-.63c-1.62,0-3.25,0-4.87,0-17.1.33-34.2.79-51.3.93a135.47,135.47,0,0,1-19.29-1.06c-14.23-1.93-28.31-.67-42.41,1-3.28.4-6.56,1-9.86,1.07-1.9.06-3.81-.83-5.73-.95-7.09-.43-14.21-.56-21.29-1.09-5.38-.41-10.72-1.62-16.11-1.82-4.19-.16-8.42.69-12.45,1.07l.26,3.47-4.89.72c10.38.63,20.69.64,31,.6a19.79,19.79,0,0,0,2.84-.54c2.58-.4,5.18-1.17,7.74-1,3.37.17,6.69,1.44,10.06,1.54,8.18.24,16.38.2,24.56.05,12.27-.22,24.53-.8,36.8-.89,4.67,0,9.35,1.38,14,1.29,12.57-.22,25.14-.9,37.7-1.35a9,9,0,0,1,2.67.58c1.74.5,3.47,1.06,5.21,1.59l.4-1.45-4.38-1.85Zm410-249.7c-7.94,0-15,.43-21.89-.09-12.92-1-25.79-3.43-38.7-3.64-23.11-.37-46.25.65-69.37.73-13.6,0-27.2-.86-40.8-.86s-27.2.75-40.8.89c-16.5.17-33,0-49.49,0h-4.77q15.6,1.51,31.18,2,26.14.72,52.3,1c5.26.05,10.53-.78,15.8-.84,1.66,0,3.34,1.16,5.42,1.94l.91-3.86,5.77,4.35,2-3.85,5.31,2.94c2.86-3.43,3.62-3.35,6.33.08.59.74,1.89.92,2.87,1.35l.61-.94-2.53-1c15.4-1.07,30-1,44.66-1.14,2,0,4.06-1.74,6-1.53,4.09.44,8.1,1.68,12.16,2.46.62.12,2-.42,2-.74.26-3.26,2.07-1.34,3.43-1.17,5.53.7,11.06,1.65,16.61,1.92,10.16.49,20.33.67,30.5.77C1288.91,118.53,1296.84,121.72,1305.61,117.73Zm-62.09,232.69c-19.43-1.17-39.69-3-60-3.46-18.74-.45-37.51.41-56.27.89-5.49.14-11,.94-16.73,1.46,5.52.51,10.73,1.25,16,1.43,14.09.48,28.19.66,42.28,1.08,4.93.15,9.86.6,14.79,1,2.58.19,5.15.57,7.73.72,6.51.38,12.52-2.38,19.56-1.4,5.8.81,12.53-.27,18.85.24,3.35.27,6.66,1.07,10,1.63-4,3.56-8.51-1.19-12,2.47h23.74l0-.25-10.53-1.66-.7-1.37ZM877.57,151.81c16,0,31.76.06,47.55,0a45.64,45.64,0,0,0,9.72-1.15c1.42-.32,2.56-1.85,3.83-2.83-1.6-1-3.16-2.78-4.8-2.85-13.23-.56-26.47-1-39.7-1-5.67,0-11.38,1.06-17,2-1.47.26-2.68,2-4,3.06l.81,1C876.36,148,877.77,148.21,877.57,151.81Zm148.68,186.73-.17-1.3c1-.09,2.55-.66,3-.19,5.38,5.27,10.79,2.56,16.24.4-17.57-7-35.61-1.75-53.75-1.72a7.44,7.44,0,0,0,4.18,2.88c.5.13,1.42-1.64,2-1.56,5.45.72,10.86,1.81,16.32,2.47,4.9.6,9.88,3.26,14.89-.32Zm-41.79-8.31c-12.53,5.58-25.88-.53-38.37,5.24L988.53,337l.57-1.46L983.41,333ZM965,419.3l-.15.81h60.57v-.81ZM84.17,442.69c.67,7.88,7.69,9.41,16.63,3.69Zm966.66-28.24h-45.95c7.7.84,15.54.13,22.78,3.33.19-.2,1.1-1.87,1.92-1.83,6.65.33,13.52-1.44,20.16,1.09ZM651.7,430.56h36.9C676.3,429.49,664,427.18,651.7,430.56ZM302.27,111.65c2.56,1.43,3.85,2.76,5.09,2.71,2.37-.1,4.68-1.28,7.07-1.5,9.21-.86,18.45-1.51,27.67-2.24l-.06-1.13ZM843.37,143c-4.9.73-1.6,3.58-2.77,6.44l23.57-1.1,0-1.41h-23Zm432.85,34.58h-29.47v1.25c4.42,0,8.85.09,13.27,0,1.92-.06,4-1.21,5.69-.73,3.18.9,6.12,2.62,9.5,4.15ZM1234.16,361.8l.71-.81a9,9,0,0,0-2.66-1.15c-5.71-.43-11.44-.79-17.16-1-1.07,0-2.17.77-3.26,1.19,1.07.58,2.13,1.65,3.22,1.67C1221.38,361.89,1227.77,361.8,1234.16,361.8Zm-8.55-186.67.07-1.33-26.92-1.29c2.31,2.64,4.38,4.41,7.53,1.68,1.14-1,3.81-.34,5.77-.21C1216.58,174.29,1221.09,174.74,1225.6,175.14ZM1290,121.53l-.15,1.46,21.6,1,.07-1.44ZM79.55,457.54c-6.15-3.44-7.15-3-8.11,3.14H80l-3.61-1.25ZM1142,172.69l-.06,1.62h18.43v-.43ZM903.13,423.37c1.4,1.14,2.24,2.37,3,2.32a23.86,23.86,0,0,0,5.63-1.32c.22-.07.4-1.41.18-1.58a3.21,3.21,0,0,0-2-.61C908.15,422.36,906.42,422.77,903.13,423.37Z"/><path class="cls-1" d="M90.14,84.26l11.31-.69c-5.85-3.68-17.91-5.32-34.68-4.63l2.59,4.53-5.68.32.91-5.16-7.3,1.54,6.87,6.21-.93,1.19L38.88,76.64c-.25-7.23,2.67-12.9,10.62-15.17,6.39,8,32.64,12.76,53.09,8.78-9.05-1-6.07-8.16-7.9-13.89l10.08,2.79-.22,1.2-5.37,1.08v1l4.42.74-1,4.27h22.09l0,.94-10,1.33.39,2.06c6.88-1,14.53,2.93,20.42-3.74l-21.74-9.41c-.07,0-1.65.68-2.57.17-1.54-.85-2.67-2.46-4.23-4h16.9l-1.56-2.19.36-1.4,32,9L154.4,62l-17.7-1.9c7.77,4.29,21.6,5.4,30.24,4.36,9.23-1.11,18.66-.55,28-.65,5-.06,10,0,15,0,11.83,0,23.67.26,35.5-.07,10.88-.31,21.74-1.86,32.61-1.78,16.87.13,33.73,1.39,50.61,1.73,5.14.1,10.31-1.24,15.47-1.92l.44,1.68c-4.35,1.11-8.65,2.7-13.07,3.27-22.37,2.87-44.86,3.45-67.39,3.1-4.69-.07-9.4-.18-14.08.06a11.68,11.68,0,0,0-6.34,2.58c5.06.45,10.12,1.24,15.18,1.3,16.5.17,33-.05,49.5.11,9.77.09,19.54.48,29.3,1.07,2.05.12,4,1.73,5.88,3.56-1.36.08-3.13.74-4,.13-4.8-3.31-9.46-.48-14.21-.21-3.73.21-7.49-.46-11.25-.55-4.78-.11-9.57,0-14.45,0l.74,2H285.44c-12.17,0-24.36.56-36.49-.15-14.08-.83-28.07-3.14-42.16-4-5.29-.34-10.71,1.46-17,2.42,10,3.21,20.26,0,28.84,5.15l-.11,1.36H158.75l0,1.24c10.41,1,20.81,2.11,31.24,2.92,1.56.12,3.22-1.15,5.95-2.21.11.1,1.28,1.06,2.43,2,.47.4.94,1.25,1.34,1.2q10.49-1.1,21-2.4c12.26-1.53,24.52-2.59,37.26-.44l-2.76,4.28c-2.7-.87-5.8-4-8,1.21-.34.79-2.28,1.24-3.5,1.28-16.29.43-32.58.71-48.87,1.15-6.94.19-13.9.34-20.8,1.06-12.77,1.33-25.49,3.06-38.23,4.63l.09,2h13.64l0,1.83H108.92l-.18,2.07,16.74,1.91,0,.82-43.47,2c-.87-2.48-4.45-3.57-8.6-1.63-2.61,1.22-17,0-19.89-1.9,12.07-8.31,26,.71,39.43-5l-22.32-1.44.4-4.2,30.86,2.75.18-1.32L95,93.57l.61-1.2,7.79,3.57-.42-.79,21.9-3.23-.12-.75c-11-1.46-22-2.89-33-4.49-.65-.09-1.09-1.61-1.62-2.46Zm66.42,11.11-.08-1.73-50.59,3.16.11,1.74Z"/><path class="cls-1" d="M1308.43,151.57H1287.5l3.71,4.84-21.25-2c-2.12-.2-4.25-.59-6.37-.6a312.92,312.92,0,0,1-50-4.68c-9.4-1.58-19.27-.24-28.93-.39-3.25-.05-6.5-.7-9.75-.93-.84-.06-1.71.6-2.57.62-3,.08-6,0-9,0l-.16-2.12c5.46-.49,10.9-1.18,16.37-1.41,2.91-.12,5.85.76,8.79.82,8.69.18,17.49-.68,26,.48,8,1.08,15.92-1.09,23.83.44,1,.2,2.36-1.67,3.63-1.79,2.16-.2,4.38.29,6.58.39,6.16.28,12.33.54,18.5.66.3,0,.63-1.33,1.11-2.43a13.35,13.35,0,0,1-2.88-.81c-.57-.32-.91-1.07-1.35-1.63a6.46,6.46,0,0,1,1.76-1.21,6.77,6.77,0,0,1,2.48,0c2.42.27,4.81,4.72,7.25,0a12.91,12.91,0,0,1,2.32,1.6,42,42,0,0,1,2.8,3.84l.53-5.37c4.41.07,9.15-1.59,11.33,4.19l.7-1.54c2.25.82,4.13,2,6.11,2.16,15,1.45,30.15,2.4,45.16,4.13,13.62,1.57,27.16,3.92,40.72,6a30.14,30.14,0,0,0,3.26.79c1.54,0,3.47,2.14,4.69-.7a11.65,11.65,0,0,1,2.63.51l-1.15,2,3.86,2.42-.18.94-15-2.18-.37,1.53c3.53,1.19,7.08,2.32,10.58,3.61a8.11,8.11,0,0,1,2.29,1.67c-2.38,3.58,1,6.11,1.74,9.17l-12.77-3.73-.79,2.91-7.48-3.38a33.79,33.79,0,0,1-6,.39c-4.53-.47-9-1.74-13.55-1.86-10.9-.28-21.81-.09-33.09-.09,1.29-4.72,2.29-4.84,10.71-2.47l-1.78-4.59,7.36,1.11-1.07-2.16.65-1.37c1.71,1,3.89,1.55,5,3,3.09,3.78,6.23,5.35,10.5,2,.23-.19.68-.44.84-.34,4.52,2.77,8.47-1.41,12.71-1,1.5.15,2.91,1.46,4.31,2.32.54.33.84,1.19,1.38,1.35,4.22,1.23,8.47,2.35,12.71,3.51l.78-1.74c-3.46-1.85-6.72-4.47-10.41-5.39-6.45-1.61-13.21-2-19.75-3.26-2.8-.56-5.37-2.21-8.05-3.37l.42-1.31,15.53,1.9c-11.69-4.64-21.55-4.19-24.81,1.27-2.62-5.79-7.09-4.72-11.55-3.34-.9.28-1.58,1.27-2.48,1.58-1.5.51-3.48,1.49-4.6.94-6.68-3.31-6.61-3.43-13.14-1Z"/><path class="cls-1" d="M1385.32,97.35l-8.59,1.6v.87c3.33,0,6.7.32,10-.08,4.71-.57,9.15-.75,13.06,3.43-3.7,3.49-8.54.43-12.86,2.2l-.54,3.33-18.85-10.52-1,1.52,2.92,4c-32.26,1-63.59-2.35-94.82-8.13,1-2.89,1-2.89,9.94-4.21L1283,86.62c-3.39,5.3-8.15,3.22-12.24,2.63-4.73-.67-9.32-2.29-14.08-3.52l1.44-3.66c20.71,5.29,41.12,4.7,61.91,1.05l-.49,1.36c4.34.76,8.8,1.61,13.28,2.26a8.92,8.92,0,0,0,4.42-.29c3.9-1.58,7.65-3.25,11.14,1.46,0,3.36-2.78,3.07-5.41,2.83-14.72-1.3-29.44-2.68-44.17-3.89-1.78-.15-3.63.53-6.78,1,10.46,1.4,19.55,4.23,28.28,3.39,11.38-1.1,21.27,6,32.65,3.71,7.05-1.4,14.49-1.14,21.75-1.08,3.67,0,7.33,1.28,11,2Z"/><path class="cls-1" d="M716.94,461.64c-5.47.72-11,1.17-16.39,2.23-7.25,1.42-14.07-.78-21.1-1.49-5.53-.55-11.25,1.12-16.9,1.27-1.76,0-3.56-1.67-6-2.9-6.58,5.9-15,2.37-23.27.93-2.89-.5-5.93-1.13-8.77-.76-6.48.84-12.89,2.27-19.74,3.53l-1.46-2.9a43.41,43.41,0,0,1-6.43,1.45c-2.28.17-4.6-.41-6.89-.3a31.77,31.77,0,0,0-6.23,1.07c-1.71.43-3.35,1.18-5.45,1.94l-3.87-3.63h11.24l-5.21-2.89.35-1.4h8.64c29.14,0,58.28.13,87.42,0,22.42-.13,44.83-.91,67.25-.84,12.69,0,25.38,1.22,38.08,1.89.5,0,1.11-.12,1.47.11,4.45,2.85,9.52,2,14.36,2.54,1.08.12,2.09.94,3.13,1.44l-.84,1.48-2.77-1.6v5.14c-1.55-.28-3-.14-4-.78-5.84-3.82-12.34-3.47-18.87-3.4-8.92.1-17.84-.09-26.76.11-2.84.06-5.65,1.29-8.48,1.36-2,0-4-1.27-6-1.44-3.17-.27-6.39.07-9.56-.16a69,69,0,0,1-7.23-1.24Z"/><path class="cls-1" d="M852.84,458.65c3.36.45,5.77,1.34,8,1,7.5-1.29,14.89-3.18,22.38-4.48,1.51-.26,3.28,1.52,4.95,1.56,8,.18,16,.1,24,.07,1.43,0,3.54-2.2,3.74,1.3l7.33-.87V464c-5.69-3.87-11.48-4-15.66-.57-2.55-.43-4-1-5.28-.83-5.88.62-11.74,1.5-17.62,2.14a10.38,10.38,0,0,1-3.27-.71c-1.21-.29-2.72-1.69-3,1,0,.33-1.67.69-2.56.69-8.64,0-17.27-.22-25.91-.24-4.6,0-9.21.08-13.8.35-1.24.08-2.42,1-3.93,1.7-1.94-2.84-4.4-4.28-7.75-1.21a2.92,2.92,0,0,1-2.79.24c-6.44-6.3-12.51-2.41-18.91.58,0-1.87-.47-3.85.15-5.4.47-1.15,3-2.73,3.5-2.42,7,4.82,14.43,1.11,21.6,1.23,6.45.11,12.92-.41,19.36-.86A34.22,34.22,0,0,0,852.84,458.65Z"/><path class="cls-1" d="M1216.16,471.81c4.8,0,9.62.19,14.41,0,11.69-.55,23.37-1.72,35.06-1.78,6.3,0,12.61,1.74,18.92,2.65a24.62,24.62,0,0,0,3.48.16c8.82,0,17.64-.1,26.46.05a62.22,62.22,0,0,1,12.74,1.16c2.16.49,3.91,2.79,6.84,5-11.44-.45-21.32-1.07-31.2-1.19-15.83-.19-31.68.33-47.5-.17-12.63-.4-25.23-1.87-37.84-3-.75-.07-1.42-1.06-2.13-1.62Z"/><path class="cls-1" d="M989.19,479.81c1.92,0,3.89.05,5.85,0,10.24-.31,20.48-.74,30.72-.9,1.64,0,3.3,1.12,4.83,2.1,4.59.3,9.63-2.24,14.92,3.3h-15.73l-.1,1,3.91,1.2c-12.76,1.84-25.14,6.59-38.14,3.35C989.38,488.33,988.33,486.8,989.19,479.81Z"/><path class="cls-1" d="M1184.44,93.86H1048.71l-.4,4.69-8.74-6.86a20.51,20.51,0,0,1,4.31-.84q70.31.48,140.61,1.06Z"/><path class="cls-1" d="M780.1,479.8H763.31l3,2.44c-12.64,2-24.46,4.22-36.47,1.29.44-7.09,3-9.34,11.48-9.67,7.14-.27,14.48-1,21.38.27,5.12,1,10,3.07,15.45,3C778.65,477.13,779.17,478.48,780.1,479.8Z"/><path class="cls-1" d="M1118,458.76l-1.84-2.42.66-1.59c5.08,1.39,10.13,3,15.27,4.08,2.37.5,4.95-.11,7.42,0,7.76.28,15.52.89,23.28.85,2.43,0,4.81-1.83,7.3-2.49,1.13-.3,2.47.23,3.72.38l-.2,1.52-4.11,1.75.34,1h11.85l-.08,1.4c-5,1.31-9.81,2.93-15.27.21-2.08-1-5.37.09-8,.6-8.7,1.66-17.1,1.11-25.17-2.77l-1,2.56c-6.52-3.94-10.79-3.57-16.93.05a9.46,9.46,0,0,1-7.66.54c-2-.94-3-4.05-4.41-6.21l.95-.92a68.53,68.53,0,0,0,6.91,1.46A65.74,65.74,0,0,0,1118,458.76Z"/><path class="cls-1" d="M622.91,84q52.94,0,105.88.08c.33,0,.65,1.23,1.44,2.82-36.26-.5-71.81.83-107.31-1.34Q622.91,84.74,622.91,84Z"/><path class="cls-1" d="M869.46,438a7.24,7.24,0,0,1-.52,4.75c-8.32,0-16.9-.12-25.47,0-13.58.23-27.16.83-40.74.91-8.76,0-17.53-.6-26.3-.85-1.05,0-2.12.52-4.63,1.18l2.47-3.2C806.8,440.27,838.14,442.38,869.46,438Z"/><path class="cls-1" d="M553.81,55.89c.63-.36,1.25-1,1.88-1,8.14-.08,16.28-.07,24.42-.11a12.35,12.35,0,0,0,2.56-.89l-5.65-2,.35-1.43,14.88,3.92.38-1-3-1.36.1-1.54c7.06,4.71,13.44,1.07,20.5-.66L609,53.17h25.51l0,1c-3.75.52-7.49,1.33-11.26,1.52-9.92.5-19.86.74-29.79,1.06-10.79.35-21.58.81-32.38.9-2.47,0-5-1.26-7.43-1.94Z"/><path class="cls-1" d="M963.57,89.71c-2.83.27-5.66.65-8.5.75-1.44,0-2.89-.57-4.34-.63-14.85-.7-29.71-1.33-44.56-2-5-.24-10-.64-15-1-.49,0-.95-.52-2.56-1.45,2.45-.25,3.66-.48,4.86-.48,13.16,0,26.37-.76,39.45.22,10.3.77,21.09-.31,30.79,4.81Z"/><path class="cls-1" d="M888.79,121.88c.61-1,1.08-2.77,1.87-2.93,2.08-.42,4.31,0,6.45-.17,6.82-.57,13.63-1.27,20.44-1.87a9.78,9.78,0,0,1,3.45.1c5.76,1.65,11.45,1,17.2-.1,1.62-.32,3.42.24,5.81,1.53-1.93,1.11-3.77,2.93-5.81,3.2a127.67,127.67,0,0,1-16.74,1.06c-2.51,0-5-1.19-7.54-1.73-1-.2-2.34-.52-2.92,0-5.5,4.53-12,2.33-18.08,2.76-1.37.1-2.85-1.26-4.27-1.94Z"/><path class="cls-1" d="M559.94,80.8c-21.79,0-43.59,0-65.38.06-2.27,0-5.46-1.57-6.44,2.47-.07.28-2.25.5-3.13.07-9.7-4.74-20.05-1.76-30.06-2.68-1.2-.11-2.39-.29-3.59-.43l.08-1.34H560Z"/><path class="cls-1" d="M1308.45,466.55l-5.2.42,1.75,4.52h-5.58l1.87-3.32-.79-.7-3.11,2.84-.1-1.35c-2.57-.06-5.14-.15-7.71-.17-10.65-.1-21.42,1-32.13-4.82,1.4-.41,2.87-1.33,4.2-1.16a168,168,0,0,0,40.52.14c2.11-.24,4.42,1.18,6.63,1.83Z"/><path class="cls-1" d="M803.89,88.19c-7.68-.43-15.36-1-23.05-1.24-3.07-.1-6.18.75-9.26.7-6.64-.12-13.5-1.71-19.85-.51-6,1.14-11.51-.07-17.22-.4-1-.06-2-.91-3.57-1.66,13.12,0,25.3-.25,37.46.07,11.86.31,24-4.27,35.6,1.1Z"/><path class="cls-1" d="M981.15,90.36c.87-.85,1.8-2.49,2.6-2.43,9.81.74,19.61,1.74,29.41,2.64,2.14.2,4.29.25,6.75.39l-2,2.46,4.79,1-.81-3.93,13.71,1,0,2H1027c.7,3.8,9.3.51,4.84,7.47-2.17-1-4.34-2.42-6.71-3.06-1.92-.52-4.25.35-6.09-.28s-3.33-2.36-6-4.37l-31.94-2.93Z"/><path class="cls-1" d="M1348.39,457.63l-23.48-3.21c-4-.55-8.1-.94-12.09-1.7a4,4,0,0,1-2.83-3h27.91l5.72-3.4.94,1.29-3.47,3,8,5.81Z"/><path class="cls-1" d="M553.67,55.75c-1.34.68-2.65,1.89-4,2-9.42.5-18.86.76-28.29,1.09-10.1.34-20.2.74-30.3.94a13.8,13.8,0,0,1-6.71-1.85,20.72,20.72,0,0,1,4.09-1c8.26-.42,16.53-.69,24.8-1.07,1.09,0,2.66,0,3.16-.67,1.48-2,2.11-2.11,3.19.32.25.56,2.44.35,3.74.36q15.25.08,30.49.1Z"/><path class="cls-1" d="M276.4,488.8H246.25l1.3,4.78h-8.71l1.3-10c7.15.44,14.34.92,21.53,1.27,1.14.06,2.31-.63,3.46-.64,1.85,0,4.09-2.12,5.43,1.53.43,1.17,3.89,1.22,6,1.78Z"/><path class="cls-1" d="M888.65,121.73c-.82,1-1.62,2.89-2.46,2.9-9.77.15-19.54-.15-29.31,0-3.81.07-7.59,1.05-11.39,1.62l-.4-2.09,10.42-2-2.4-1.49c.3-.43.44-.82.58-.82,3.33,0,6.88-.69,9.91.26,1.6.5,2.56,3.41,5.25,2.61,1.65-.49,3.27-1.06,4.91-1.57.6-.19,1.5-.69,1.78-.46,2.45,2,4.08,1.47,6-1,.73-1,2.93-.82,5-1.31L885,121.6l3.75.28Z"/><path class="cls-1" d="M686.54,59.68c-.62.37-1.22,1-1.85,1.06-10.25.4-20.51,1-30.75.95-7-.07-14.08-1.19-21.12-1.85l0-1.55a25.64,25.64,0,0,1,3.46-.47c14.15,0,28.29-.12,42.43.07,2.66,0,5.31,1.26,8,1.93Z"/><path class="cls-1" d="M1099.82,460a34.41,34.41,0,0,1-5.47,1c-3.82.09-7.65,0-11.46-.24-2.25-.15-4.46-1-6.7-1.08a73.74,73.74,0,0,0-8.37.55c-2.77.24-5.54.54-8.49.83l2-7.08c2.51,1,5.27,2.06,8.05,3.08a4.51,4.51,0,0,0,1.63.1,68,68,0,0,1,8-.19c2.73.25,5.81,3.16,7.41-1.82.16-.49,3.06-.1,4.69-.13l-.17,2.77h8.4Z"/><path class="cls-1" d="M177.2,475.81h14.17l.32,1.36-8,2.25.09.53,11.51-1.35.84-3.73.94.05.41,2.61,8-.73.21,1.37c-7.12,2.46-14.15,5.23-21.41,7.15-1.57.41-5.78.2-5.39-4.34C179,479.2,177.71,477.28,177.2,475.81Z"/><path class="cls-1" d="M986.62,453.19c2.05.36,4.27,1.42,6.06.93,3.67-1,5.46.27,6.78,4.19-9.15.27-17.67,6.19-27,.52.66-2.24,1.31-4.23,5.63-3.33C980.77,456.07,984.07,454,986.62,453.19Z"/><path class="cls-1" d="M1394.18,484.83l-30-11.07C1372.43,469.76,1387.68,475.41,1394.18,484.83Z"/><path class="cls-1" d="M274.94,86.85c7.52,0,15,.16,22.56-.05,5.59-.15,11.17-.92,16.77-1.14a29.23,29.23,0,0,1,9.85,1.27c-16.48.14-32.79,5.16-49.23,1.82Z"/><path class="cls-1" d="M411.93,74.83l-2.81,2.4,4.47,1c-.21.61-.29,1.15-.4,1.16-11.14.54-22.34,2.05-33.32-1.68,6.27.56,12.07-2.73,18.63-1.33C402.69,77.28,407.47,75.44,411.93,74.83Z"/><path class="cls-1" d="M810.2,83.81c10.16,0,20.33-.09,30.49.11,1.47,0,2.92,1.47,4.38,2.25l-.71,2-34.22-1.5Z"/><path class="cls-1" d="M946.53,456.35c2.88-.18,5.88.1,8.6-.65s5.06-2.5,7.1-3.57l6.68,6.29c-2.29,3.23-7.11-1.38-7.79,3.83a5.83,5.83,0,0,1-1.76-.64,12.35,12.35,0,0,0-13.82-1.53,1.61,1.61,0,0,1-2.36-2.07,28.32,28.32,0,0,1,3-3.27Z"/><path class="cls-1" d="M438.23,48.42l40.15-2,.11,2.26c-13.45-.44-26.68,3.4-40.19,1.75Z"/><path class="cls-1" d="M1219.48,414l-3.09-4.59a20.42,20.42,0,0,1,3.67.42c1.67.55,3.21,1.73,4.89,1.92,2.81.32,2.82-1.56,1.76-4.62l11.35,4.34c-.8,3-1.56,5.33-6.28,3.67C1228.1,413.81,1223.81,414.29,1219.48,414Z"/><path class="cls-1" d="M571.25,80.14c4.68-1.3,9.2-3.44,14.09-1.49,1.69.67,4.09-.6,6.17-.73,2.49-.15,5,0,7.5,0h6.36l.17,2.24Z"/><path class="cls-1" d="M1030.16,466.54l31.13,1.51C1056.37,472.27,1038,471.65,1030.16,466.54Z"/><path class="cls-1" d="M1298.67,418.55h-11l4.4,2.9-4.87.56,1,.92-2.9,3.34-1.13-.7,1.16-3.32-3.67-2.16.89-4.14C1297.25,415.29,1297.27,415.29,1298.67,418.55Z"/><path class="cls-1" d="M955,496l23,1.45c-5.35,1.88-10,4.44-14.9,4.89-2.79.26-5.9-2.9-8.87-4.52Z"/><path class="cls-1" d="M646.35,77.1c-8.1,5.58-17.72,1.18-26.45,3.2l.48-2.86c5.23,0,10.37,0,15.52,0a6.46,6.46,0,0,0,1.69-.31c2.74-.77,5.48-1.57,8.21-2.36Z"/><path class="cls-1" d="M396.23,478.74c5.54.4,11.12.54,16.61,1.33,1.85.27,3.47,2.15,4.78,4.07-7.34-1.84-15.59,1.24-22.06-3.37Z"/><path class="cls-1" d="M417.37,84l26.31-1.46C438.71,87.32,421.12,88.3,417.37,84Z"/><path class="cls-1" d="M846.94,85.12h27.69C873.09,88.69,852.45,89,846.94,85.12Z"/><path class="cls-1" d="M935.85,454.68c2.89,2.9,2.8,3.64-1.58,5.88a20.73,20.73,0,0,1-4,1.91c-1.57.41-3.76,1-4.74.3s-1.12-3.44-.44-4.53c.77-1.24,2.82-1.84,4.43-2.38A51.91,51.91,0,0,1,935.85,454.68Z"/><path class="cls-1" d="M90.14,84.22c-1.37,1-2,2.37-4.62,1.9-3.68-.66-7.69.62-11.56,1-2.68.28-5.37.49-8,.74l-.44-1.69,15.88-4.62,8.79,2.69Z"/><path class="cls-1" d="M825.93,123.9h17.28c-2.92,4.81-6,7.68-11.09,4.33a73,73,0,0,0-6.44-3.44Z"/><path class="cls-1" d="M1002,69.3c1.82-1.22,2.77-2.42,3.69-2.4,10.73.23,21.45.63,32.17,1.06.51,0,1,.74,1.73,1.34Z"/><path class="cls-1" d="M367,55l22.4-1.63.28,1.8c-4.13,2.06-11-1.64-12.42,5.73l-10.08-5Z"/><path class="cls-1" d="M810.7,135.74l3.28-1.26c-.46-2.81-7.14,0-4.91-5.29a71.15,71.15,0,0,1,7.82-.92c.91,0,2.65,1.2,2.61,1.76a62.6,62.6,0,0,1-1.32,7.6Z"/><path class="cls-1" d="M1157.38,409.71c-9.21,3.59-18.69,1.39-28,2l-.1-1.83,27.85-1.59Z"/><path class="cls-1" d="M1356.42,145.86c7.88-2.48,18.11-1.33,22.39,2.65C1371,149,1363.74,149.56,1356.42,145.86Z"/><path class="cls-1" d="M16.57,204.29l.57-5.58-5.12.76c1.57-3.54,11.28-6.61,15.92-4.82Z"/><path class="cls-1" d="M1327.45,140.46c-11.08,1-15.32-.32-16.61-5C1327.19,136.29,1327.19,136.29,1327.45,140.46Z"/><path class="cls-1" d="M1413.36,255.56l28,5.76c-2,2.23-2,2.21-13.83-.51-4.82-1.11-9.66-2.09-14.49-3.12Z"/><path class="cls-1" d="M1186.55,92.15c7.65-1.08,15.37-2.93,22.49,1.26l-.16,1.81-22.43-1.8Z"/><path class="cls-1" d="M1182.73,464.41l3.2-4.55-.82-2.69c2,.31,5.72.34,5.83,1,.81,4.7,5.07,2.25,7.18,3.92l1.51,1.2c-.48.5-1.37,1.47-1.4,1.44C1193.62,460.71,1189,465.39,1182.73,464.41Z"/><path class="cls-1" d="M1063,55.88l-31.89-2.23.12-1.81,32.08,2Z"/><path class="cls-1" d="M698.3,78.36c2.34-1.72,3.91-2.94,5.56-4.06s3-.25,4.56,1.39c.75.81,3.12.56,4.57.14s2.85-1.66,4.6-2.75l.66,5.28Z"/><path class="cls-1" d="M251.56,82.45c-9.36,3.41-20.31,3-23.67,0Z"/><path class="cls-1" d="M382.72,446.91q0-.61,0-1.22h23.85A31.1,31.1,0,0,1,382.72,446.91Z"/><path class="cls-1" d="M786.2,79.6c-6.82.27-12.7,1.06-17.94-3.78L771,74.24a11,11,0,0,0,.29,1.84,50.35,50.35,0,0,0,8.81-.35c1.22-.22,2.19-1.89,4.3-3.87Z"/><path class="cls-1" d="M1187.1,126.8c5,0,10.24.82,15-.27,3.54-.81,6.54.18,9.75.4,1.11.08,2.13,1.6,2.33,3.28l-27.25-3Z"/><path class="cls-1" d="M821.34,52.14,795.8,50l.17-2.15,25.54,2.06Z"/><path class="cls-1" d="M366.56,91.49c-6.07,1.79-12,4.46-18.64,1.91l-.21-1.56,18.53-2.47Z"/><path class="cls-1" d="M1243,130.79c-5.63,0-11.27.14-16.89-.11-1.27-.06-2.47-1.51-3.32-3.08a45.88,45.88,0,0,0,13.67.32c2.19-.2,4.48.8,6.73,1.26Z"/><path class="cls-1" d="M1348.69,461.19l19.44,4.38-.38,1.59-7.57-1.83C1356.23,469.1,1351.5,467.74,1348.69,461.19Z"/><path class="cls-1" d="M792.25,120.52H768.81C770.1,117,785.65,117,792.25,120.52Z"/><path class="cls-1" d="M1203.36,58.17c-1,1.28-1.54,2.49-2,2.47-7.06-.22-14.11-.61-21.17-1l.13-1.51Z"/><path class="cls-1" d="M632.07,59.62l-19.54,2.32C615.09,57.4,625.87,56.17,632.07,59.62Z"/><path class="cls-1" d="M1026.52,460.31l1.62-4.68c2.69-.58,5.65-2,8.24-1.5,1.79.35,3.06,3.38,5.33,6.15l-7.72-1.65.38-1.12Z"/><path class="cls-1" d="M1356.15,433l4.23-.52-4.21-1.63.36-1.36c4.22,1.23,8.45,2.44,12.65,3.73a1.4,1.4,0,0,1,.37,1.25c-.44.53-1.14,1.24-1.69,1.2-3.94-.29-7.86-.75-11.8-1.15Z"/><path class="cls-1" d="M1362.15,482.28l-19.32-3.77-1.08-1.53a11.6,11.6,0,0,1,2.75-1C1348.76,475.52,1357.92,478.57,1362.15,482.28Z"/><path class="cls-1" d="M842.95,52.07l-18.63-1,.15-2.4,18.55.85Z"/><path class="cls-1" d="M30.09,253.31l-14.17,1.22,3.08-6.3,11,4.33Z"/><path class="cls-1" d="M1179.79,87.09c.84-2,1.42-4.63,2-4.63,4.23,0,8.46.55,12.68.91l0,1.71Z"/><path class="cls-1" d="M963.71,89.85c.65-1,1.48-3,1.94-2.89,5.2,1,10.34,2.21,15.5,3.39v0l-17.58-.63Z"/><path class="cls-1" d="M958.19,66,951,64.51l.58,4.15-8.19-4.15.56-1.9,14.58.93Z"/><path class="cls-1" d="M21,122H31.26l-2.53,6.86-8.53-5.56Z"/><path class="cls-1" d="M354.91,56.3h10.52l.2.74-3.44,1.32,3.43.88C361.65,63.26,361.08,63.11,354.91,56.3Z"/><path class="cls-1" d="M1018.37,456.61l5.47-1.14c-4.44,7.88-9.67,0-14.13,2.69.71-4.27,3.26-4.66,6-4.25C1016.52,454,1017.14,455.31,1018.37,456.61Z"/><path class="cls-1" d="M680.89,77H696.3l0,2H680.89Z"/><path class="cls-1" d="M1415.38,163.61l14.67,7.64-.83,1.51c-5.74-1-10.78-3.33-14.54-7.91Z"/><path class="cls-1" d="M1161.23,142.39c.92-.84,1.86-2.42,2.77-2.41,5.18.06,10.36.51,15.54.82l0,1.54h-18.27Z"/><path class="cls-1" d="M1150.06,123.51l17.45,1.46-.1.84H1149.9Z"/><path class="cls-1" d="M437.21,78.75c-6.38.61-12,2-18.77-.3,5.82-1.85,11.19,1.56,15.76-3.64Z"/><path class="cls-1" d="M363.09,78H346l.14-2.26,16.93,1.3Z"/><path class="cls-1" d="M1376.49,132.56l15.06.88-.22,2.6-15-1.28Z"/><path class="cls-1" d="M1326,425.67l17.5,2.69,0,1.4h-11.16l-6.2-2.8Z"/><path class="cls-1" d="M396.79,52.52l19.55-2.11.22,2.06-19.7,1.71Z"/><path class="cls-1" d="M748.3,72.17l-.66,6.51-8.51,1.22-.73-1.52Z"/><path class="cls-1" d="M1330.38,170.48c-4,4.07-8.91,1.33-13.43,1.77C1320.89,168.15,1325.83,170.61,1330.38,170.48Z"/><path class="cls-1" d="M69.6,94.23c6.12-3.93,11.48-3,13.22,2Z"/><path class="cls-1" d="M1354.65,469.95c-1.2,4.27-6.75,3.79-12.73-1.44Z"/><path class="cls-1" d="M1136.83,416.21l-19.89-1.65C1119.27,412.42,1134.85,413.31,1136.83,416.21Z"/><path class="cls-1" d="M1162.93,62.13h19.46l0,.93h-19.49Z"/><path class="cls-1" d="M1228.38,159.18l2.26-2.16.76,5.53,5.91,1.38-.33,1.64-11.66-2.11,3.21-4.44Z"/><path class="cls-1" d="M1232.42,138.42l11.41,1.64C1239.54,144.55,1234.83,144.11,1232.42,138.42Z"/><path class="cls-1" d="M1251.59,457.24c-2.23,3.63-8.65,3.73-12.08,0Z"/><path class="cls-1" d="M739.43,73c-.54,5.46-4.46,6-8.12,6.68-.75.14-1.71-.85-2.58-1.31a11.24,11.24,0,0,1,2-1.53C733.48,75.55,736.28,74.37,739.43,73Z"/><path class="cls-1" d="M686.69,59.83c.18-.58.4-1.67.55-1.66,5,.31,10,.73,15,1.42-5.19,1.78-10.39,3.5-15.71.1Z"/><path class="cls-1" d="M905.68,130.72c-2.3,3.7-8.84,3.9-13.54,0Z"/><path class="cls-1" d="M1130.39,472.54c-4.86.89-9.25-.65-13.76-1.56l.39-1.86,13.67,1.6Z"/><path class="cls-1" d="M1049.88,460.92c-2.39-1.3-7,.42-6-5.68l4.39-.93,2.84,5.7Z"/><path class="cls-1" d="M752.47,62.4l-16.58-.87.11-1.84,16.58.92Z"/><path class="cls-1" d="M1195.76,134.86l-1.86,1.51c1.55,1.34,5.58,2.31,1.06,5.28l-6.46-4,6.46-4Z"/><path class="cls-1" d="M523.93,45.26h16.52l0,1H523.95Z"/><path class="cls-1" d="M803,70.65l12.8.92-.1,2.08L802.86,73Z"/><path class="cls-1" d="M145.15,493.09c-.12-4.07-.12-4.07,13.09-.72Z"/><path class="cls-1" d="M1417.95,214.49l13.35,1.44C1427.88,218.87,1422.25,218.49,1417.95,214.49Z"/><path class="cls-1" d="M1110.65,64h-14.52l.07-2.19,14.16,1Z"/><path class="cls-1" d="M444.3,75.15l-4.66,5.59c-.47-1.27-1.28-2.53-1.34-3.82C438.12,73,440.89,73.86,444.3,75.15Z"/><path class="cls-1" d="M1409.63,207.26c-5.72,2.62-11.87,2.11-14.25-1.69Z"/><path class="cls-1" d="M519.66,47,503,48l-.12-1.5h16.73Z"/><path class="cls-1" d="M1230.2,440.45l-10.29,1.64-.66-3.27c1.14,0,2.28-.12,3.42-.06,2.51.12,5,.31,7.51.47Z"/><path class="cls-1" d="M270.11,88.48l-11.82,1.85c2.79-6.46,8.14-1.74,11.49-4Z"/><path class="cls-1" d="M40.64,258.7l3.14,4.15-.69,1.75c-2.86-2-6.78-2.88-7.77-8.43Z"/><path class="cls-1" d="M494.47,444.29H478.83C484.89,441.95,489.67,442.93,494.47,444.29Z"/><path class="cls-1" d="M664.65,78.69H653.52C655.75,74.73,659.44,74.57,664.65,78.69Z"/><path class="cls-1" d="M1326.41,468.44c-3.53.32-7.65,2.81-10-3.84l10.19,2.55Z"/><path class="cls-1" d="M1222.06,451.57l10.53,1.08-.25,2C1228.79,454.52,1225,456.12,1222.06,451.57Z"/><path class="cls-1" d="M1056.41,133.7c-6.23,4.46-8.41,4.2-9.61-.75Z"/><path class="cls-1" d="M1376.17,308.55l-12.12-3.33C1369.52,303.51,1376,305.71,1376.17,308.55Z"/><path class="cls-1" d="M1216.66,464.46h-9.77C1210,460.79,1214.92,460.68,1216.66,464.46Z"/><path class="cls-1" d="M467.09,441.44l-1.64,3.85-8.68-.43.06-1.69Z"/><path class="cls-1" d="M1181.21,428.44h-13.33l0-1.28h13.54Z"/><path class="cls-1" d="M1127.43,424.55c-1.14,2.92-4.53,3.24-10.68,0Z"/><path class="cls-1" d="M1290.1,411.38l13.4,1.74-.2,1.72L1289.83,413Z"/><path class="cls-1" d="M991.54,51.76l-12.37-.84.11-1.84,12.44,1Z"/><path class="cls-1" d="M1403.12,384.58l13.23,1.88-.2,1.46-13.44-1.46Z"/><path class="cls-1" d="M9.35,434.43l10.48,6C14.39,441.37,11.12,440.2,9.35,434.43Z"/><path class="cls-1" d="M645.73,450.44,636.42,456C636.58,451.66,639.43,449.75,645.73,450.44Z"/><path class="cls-1" d="M832.1,120.06h11.45C842.6,122.82,835.51,122.72,832.1,120.06Z"/><path class="cls-1" d="M1285,105.94l10.59,2.48-.51,2.91-10.42-4.16Z"/><path class="cls-1" d="M373.81,81.69c-3.31-2.73-5.76-5.53-.53-9.11Z"/><path class="cls-1" d="M759.73,74c-2.23,1.76-2.5,7.2-7.95,3.54l6.92-5.21Z"/><path class="cls-1" d="M940.73,388.7c2.4-.32,4.79-.8,7.2-.91a56.21,56.21,0,0,1,6.33.4l-.14,1.66H939.58Z"/><path class="cls-1" d="M1029.38,385.51l11.17,2.17c-2.23,1.36-4.22,2.74-6.38,3.79-.48.23-1.74-.5-2.25-1.12C1031.16,389.43,1030.75,388.22,1029.38,385.51Z"/><path class="cls-1" d="M1027.51,387.8H1013.9l0-1h13.6Z"/><path class="cls-1" d="M1200.67,183l-17.87-1.48C1188.81,181.27,1194.91,179.66,1200.67,183Z"/><path class="cls-1" d="M914.79,149.56c-8.66.21-16.12,3.47-22.88-1.91C899.09,148.35,906.62,142.91,914.79,149.56Z"/></svg>
